<?xml version="1.0" encoding="UTF-8" standalone="no"?>
<svg
   width="1024"
   height="1024"
   viewBox="0 0 1024 1024"
   version="1.1"
   id="svg396"
   sodipodi:docname="Paint.svg"
   inkscape:version="1.2.2 (b0a8486541, 2022-12-01)"
   inkscape:export-filename="./Paint.png"
   inkscape:export-xdpi="96"
   inkscape:export-ydpi="96"
   xml:space="preserve"
   xmlns:inkscape="http://www.inkscape.org/namespaces/inkscape"
   xmlns:sodipodi="http://sodipodi.sourceforge.net/DTD/sodipodi-0.dtd"
   xmlns:xlink="http://www.w3.org/1999/xlink"
   xmlns="http://www.w3.org/2000/svg"
   xmlns:svg="http://www.w3.org/2000/svg"><defs
     id="defs400"><inkscape:path-effect
       effect="bspline"
       id="path-effect8009"
       is_visible="true"
       lpeversion="1"
       weight="33.333333"
       steps="2"
       helper_size="0"
       apply_no_weight="true"
       apply_with_weight="true"
       only_selected="false" /><inkscape:path-effect
       effect="bspline"
       id="path-effect7387"
       is_visible="true"
       lpeversion="1"
       weight="33.333333"
       steps="2"
       helper_size="0"
       apply_no_weight="true"
       apply_with_weight="true"
       only_selected="false" /><inkscape:path-effect
       effect="bspline"
       id="path-effect7383"
       is_visible="true"
       lpeversion="1"
       weight="33.333333"
       steps="2"
       helper_size="0"
       apply_no_weight="true"
       apply_with_weight="true"
       only_selected="false" /><inkscape:path-effect
       effect="bspline"
       id="path-effect7379"
       is_visible="true"
       lpeversion="1"
       weight="33.333333"
       steps="2"
       helper_size="0"
       apply_no_weight="true"
       apply_with_weight="true"
       only_selected="false" /><inkscape:path-effect
       effect="bspline"
       id="path-effect7375"
       is_visible="true"
       lpeversion="1"
       weight="33.333333"
       steps="2"
       helper_size="0"
       apply_no_weight="true"
       apply_with_weight="true"
       only_selected="false" /><inkscape:path-effect
       effect="bspline"
       id="path-effect6593"
       is_visible="true"
       lpeversion="1"
       weight="33.333333"
       steps="2"
       helper_size="0"
       apply_no_weight="true"
       apply_with_weight="true"
       only_selected="false" /><linearGradient
       id="Tertiary"
       inkscape:swatch="solid"><stop
         style="stop-color:#0a0a0a;stop-opacity:1;"
         offset="0"
         id="stop6533" /></linearGradient><inkscape:path-effect
       effect="bspline"
       id="path-effect6531"
       is_visible="true"
       lpeversion="1"
       weight="33.333333"
       steps="2"
       helper_size="0"
       apply_no_weight="true"
       apply_with_weight="true"
       only_selected="false" /><inkscape:path-effect
       effect="bspline"
       id="path-effect6024"
       is_visible="true"
       lpeversion="1"
       weight="33.333333"
       steps="2"
       helper_size="0"
       apply_no_weight="true"
       apply_with_weight="true"
       only_selected="false" /><linearGradient
       id="Secondary"
       inkscape:swatch="solid"
       gradientTransform="translate(-127.54853,-4.6287919)"><stop
         style="stop-color:#939393;stop-opacity:1;"
         offset="0"
         id="stop5881" /></linearGradient><inkscape:path-effect
       effect="bspline"
       id="path-effect5879"
       is_visible="true"
       lpeversion="1"
       weight="33.333333"
       steps="2"
       helper_size="0"
       apply_no_weight="true"
       apply_with_weight="true"
       only_selected="false" /><linearGradient
       id="linearGradient2702"><stop
         style="stop-color:#000000;stop-opacity:1;"
         offset="0"
         id="stop2700" /></linearGradient><linearGradient
       id="linearGradient2696"><stop
         style="stop-color:#000000;stop-opacity:1;"
         offset="0"
         id="stop2694" /></linearGradient><inkscape:path-effect
       effect="bspline"
       id="path-effect2692"
       is_visible="true"
       lpeversion="1"
       weight="33.333333"
       steps="2"
       helper_size="0"
       apply_no_weight="true"
       apply_with_weight="true"
       only_selected="false" /><linearGradient
       id="linearGradient2686"><stop
         style="stop-color:#000000;stop-opacity:1;"
         offset="0"
         id="stop2684" /></linearGradient><linearGradient
       id="linearGradient2680"><stop
         style="stop-color:#000000;stop-opacity:1;"
         offset="0"
         id="stop2678" /></linearGradient><inkscape:path-effect
       effect="bspline"
       id="path-effect2676"
       is_visible="true"
       lpeversion="1"
       weight="33.333333"
       steps="2"
       helper_size="0"
       apply_no_weight="true"
       apply_with_weight="true"
       only_selected="false" /><linearGradient
       id="linearGradient2448"><stop
         style="stop-color:#000000;stop-opacity:1;"
         offset="0"
         id="stop2446" /></linearGradient><linearGradient
       id="AccentThin"
       inkscape:swatch="solid"><stop
         style="stop-color:#000000;stop-opacity:1;"
         offset="0"
         id="stop2440" /></linearGradient><linearGradient
       id="linearGradient2436"><stop
         style="stop-color:#000000;stop-opacity:1;"
         offset="0"
         id="stop2434" /></linearGradient><inkscape:path-effect
       effect="bspline"
       id="path-effect2432"
       is_visible="true"
       lpeversion="1"
       weight="33.333333"
       steps="2"
       helper_size="0"
       apply_no_weight="true"
       apply_with_weight="true"
       only_selected="false" /><linearGradient
       id="linearGradient2004"><stop
         style="stop-color:#000000;stop-opacity:1;"
         offset="0"
         id="stop2002" /></linearGradient><inkscape:path-effect
       effect="bspline"
       id="path-effect2000"
       is_visible="true"
       lpeversion="1"
       weight="33.333333"
       steps="2"
       helper_size="0"
       apply_no_weight="true"
       apply_with_weight="true"
       only_selected="false" /><linearGradient
       id="Main"
       inkscape:swatch="solid"><stop
         style="stop-color:#87002e;stop-opacity:1;"
         offset="0"
         id="stop1904" /></linearGradient><linearGradient
       inkscape:collect="always"
       xlink:href="#Main"
       id="linearGradient1933"
       gradientUnits="userSpaceOnUse"
       x1="72.211807"
       y1="879.76186"
       x2="315.22928"
       y2="879.76186"
       gradientTransform="translate(-72.211807,0.2772659)" /><linearGradient
       inkscape:collect="always"
       xlink:href="#Main"
       id="linearGradient2008"
       gradientUnits="userSpaceOnUse"
       x1="309.37445"
       y1="725.19769"
       x2="1056.8022"
       y2="725.19769" /><linearGradient
       inkscape:collect="always"
       xlink:href="#Main"
       id="linearGradient2438"
       x1="645.32135"
       y1="535.29358"
       x2="1043.8953"
       y2="535.29358"
       gradientUnits="userSpaceOnUse" /><linearGradient
       inkscape:collect="always"
       xlink:href="#AccentThin"
       id="linearGradient2444"
       x1="642.83686"
       y1="535.28386"
       x2="1046.3985"
       y2="535.28386"
       gradientUnits="userSpaceOnUse" /><linearGradient
       inkscape:collect="always"
       xlink:href="#AccentThin"
       id="linearGradient2450"
       x1="300.30176"
       y1="725.039"
       x2="1059.2948"
       y2="725.039"
       gradientUnits="userSpaceOnUse" /><linearGradient
       inkscape:collect="always"
       xlink:href="#Main"
       id="linearGradient2698"
       x1="197.12466"
       y1="986.49573"
       x2="1051.478"
       y2="986.49573"
       gradientUnits="userSpaceOnUse" /><linearGradient
       inkscape:collect="always"
       xlink:href="#AccentThin"
       id="linearGradient2704"
       x1="197.12466"
       y1="986.49573"
       x2="1051.478"
       y2="986.49573"
       gradientUnits="userSpaceOnUse" /><linearGradient
       inkscape:collect="always"
       xlink:href="#Secondary"
       id="linearGradient5885"
       x1="51.097553"
       y1="776.31995"
       x2="872.75116"
       y2="776.31995"
       gradientUnits="userSpaceOnUse" /><linearGradient
       inkscape:collect="always"
       xlink:href="#Tertiary"
       id="linearGradient6537"
       x1="-13.817431"
       y1="761.19092"
       x2="384.58812"
       y2="761.19092"
       gradientUnits="userSpaceOnUse" /></defs><sodipodi:namedview
     id="namedview398"
     pagecolor="#ffffff"
     bordercolor="#666666"
     borderopacity="1.0"
     inkscape:showpageshadow="2"
     inkscape:pageopacity="0.0"
     inkscape:pagecheckerboard="0"
     inkscape:deskcolor="#d1d1d1"
     showgrid="false"
     inkscape:zoom="2.8507998"
     inkscape:cx="204.32863"
     inkscape:cy="611.23199"
     inkscape:window-width="1815"
     inkscape:window-height="1366"
     inkscape:window-x="745"
     inkscape:window-y="0"
     inkscape:window-maximized="0"
     inkscape:current-layer="layer2" /><desc
     id="desc2">Skater.blend, (Blender 3.5.1)</desc><g
     inkscape:groupmode="layer"
     id="layer2"
     inkscape:label="Main"
     style="display:inline"><rect
       style="fill:#ededed;stroke:none;stroke-width:6;stroke-linecap:round;stroke-linejoin:bevel;stroke-dasharray:none;stroke-opacity:1;fill-opacity:1"
       id="rect5515"
       width="1024"
       height="1024"
       x="0"
       y="0" /><image
       preserveAspectRatio="none"
       inkscape:svg-dpi="200"
       width="1024"
       height="1024"
       xlink:href="UVTemplate.svg"
       id="image3976"
       x="0"
       y="0"
       style="display:none" /><path
       style="fill:url(#linearGradient6537);fill-opacity:1;stroke:none;stroke-width:1px;stroke-linecap:butt;stroke-linejoin:miter;stroke-opacity:1"
       d="m 559.76736,735.25565 c 16.91664,-11.60798 -25.1132,-19.959 -94.29637,-26.54416 -69.18317,-6.58515 -165.51207,-11.40362 -240.61824,-14.50183 -75.10617,-3.09821 -128.980572,-4.47575 -169.270552,-5.9783 -40.28998,-1.50255 -66.990722,-3.12996 -76.572238,3.74721 -9.581517,6.87717 -2.042016,22.25726 -1.566405,38.93629 0.475611,16.67904 -6.111621,34.65626 16.7782512,44.95789 22.8898728,10.30162 75.2539008,12.92697 122.5651838,17.37572 47.31127,4.44875 89.56613,10.72037 134.44734,8.24832 44.8812,-2.47205 92.38471,-13.68736 154.06949,-26.72784 61.68479,-13.04047 137.5469,-27.90532 154.46354,-39.5133 z"
       id="path6529"
       inkscape:path-effect="#path-effect6531"
       inkscape:original-d="m 618.71354,731.99864 c -42.02969,-8.3502 -84.05953,-16.70122 -126.09207,-25.05359 -96.3337,-4.81776 -192.6626,-9.63623 -288.99829,-14.456 -53.87663,-1.37662 -107.751027,-2.75417 -161.62966,-4.13279 -26.701359,-1.62651 -53.402101,-3.25392 -80.105475,-4.88243 7.540809,15.38171 15.08031,30.7618 22.618961,46.14119 -6.586634,17.97932 -13.173868,35.95654 -19.762499,53.93385 52.367124,2.62645 104.731153,5.25179 157.095233,7.87619 42.2584,6.273 84.51326,12.54462 126.76966,18.81561 47.50641,-11.21476 95.00992,-22.43007 142.51338,-33.64661 75.86605,-14.86443 151.72817,-29.72928 227.59076,-44.59542 z"
       sodipodi:nodetypes="ccccccccccc"
       inkscape:export-filename="./path6529.png"
       inkscape:export-xdpi="96"
       inkscape:export-ydpi="96" /><rect
       style="fill:url(#linearGradient1933);fill-opacity:1;stroke-width:4.82511;stroke-linecap:round;stroke-linejoin:bevel"
       id="rect1097"
       width="243.01747"
       height="123.81572"
       x="0"
       y="818.13129" /><path
       style="fill:url(#linearGradient5885);fill-opacity:1;stroke:none;stroke-width:1px;stroke-linecap:butt;stroke-linejoin:miter;stroke-opacity:1"
       d="M 858.10539,714.88703 C 815.33737,695.89138 705.92078,689.15945 597.42344,698.17982 488.92611,707.20019 381.35056,731.9726 310.72873,749.7606 c -70.62184,17.78799 -104.28349,28.58995 -114.51993,39.14675 -10.23645,10.55679 2.95333,20.86626 23.41276,28.21321 20.45944,7.34694 48.18767,11.73172 78.99482,16.37982 30.80715,4.64811 64.6901,9.55907 102.09843,10.19738 37.40832,0.63831 78.33859,-2.99593 154.32708,-11.59099 75.98849,-8.59506 187.02996,-22.1503 254.49103,-44.55756 67.46107,-22.40726 91.34049,-53.66653 48.57247,-72.66218 z"
       id="path5877"
       inkscape:path-effect="#path-effect5879"
       inkscape:original-d="m 924.75294,702.62326 c -109.41563,-6.73094 -218.83222,-13.46288 -328.24985,-20.19582 -107.57671,24.77391 -215.15226,49.54633 -322.73312,74.31874 -33.66269,10.80361 -67.32434,21.60557 -100.98905,32.40719 13.19132,10.3109 26.3811,20.62038 39.57016,30.92907 27.72979,4.38588 55.45802,8.77067 83.18636,13.15463 33.88597,4.91225 67.76892,9.82321 101.65289,14.73347 40.9329,-3.63339 81.86317,-7.26763 122.79326,-10.90295 111.04692,-13.55478 222.0884,-27.11001 333.1311,-40.66652 23.88042,-31.25827 47.75983,-62.51754 71.63825,-93.77781 z"
       sodipodi:nodetypes="cscccccccc" /><path
       style="fill:url(#linearGradient2008);fill-opacity:1;stroke:url(#linearGradient2450);stroke-width:5.9;stroke-linecap:butt;stroke-linejoin:miter;stroke-dasharray:none;stroke-opacity:1"
       d="m 734.06034,781.3195 c 62.3939,-9.20167 88.07055,-18.5888 104.07968,-33.72465 16.00912,-15.13586 20.82566,-35.46243 -0.54361,-53.0553 -21.36926,-17.59288 -68.92314,-32.4496 -120.08569,-40.94965 -51.16254,-8.50005 -116.88218,-11.07054 -159.49266,-13.09981 -42.61048,-2.02927 -104.72208,-5.54662 -127.66742,-13.94686 -22.94534,-8.40024 -16.4857,-23.66296 -4.22234,-32.52921 12.26336,-8.86624 35.80591,-15.29455 57.24322,-16.11509 21.43732,-0.82054 42.91803,3.37954 83.59525,13.68223 40.67722,10.3027 100.54777,26.70708 166.75455,33.16782 66.20678,6.46073 138.74049,2.97759 195.8189,7.5679 57.07841,4.59031 98.68958,17.2529 116.49438,44.66049 17.8048,27.4076 11.8028,69.55743 -11.9421,97.48058 -23.745,27.92316 -65.23176,41.61928 -155.97864,48.46238 -90.74688,6.84311 -230.74779,6.83271 -337.9753,4.89231 -107.2275,-1.9404 -195.56168,-6.53256 -214.16621,-9.20713 -18.60453,-2.67457 10.59592,-5.42499 51.69046,-7.97168 41.09455,-2.5467 72.36347,-3.78849 143.80401,-8.71155 71.44054,-4.92305 150.19961,-11.4011 212.59352,-20.60278 z"
       id="path1998"
       inkscape:original-d="m 767.72763,782.62 c 28.72705,-10.50096 54.4037,-19.8881 81.60486,-29.83394 4.81782,-20.32679 9.63436,-40.65336 14.45018,-60.98215 -47.55572,-14.85661 -95.1096,-29.71334 -142.66732,-44.57195 -54.76721,-2.14115 -120.48685,-4.71164 -164.30137,-6.42632 -41.40645,-2.34388 -103.51805,-5.86123 -155.27858,-8.79334 5.87111,-13.8688 12.33075,-29.13152 17.61033,-41.6094 19.24625,-5.25393 42.7888,-11.68225 64.18139,-17.52479 21.48157,4.20105 42.96228,8.40113 64.44234,12.60028 59.87434,16.40615 119.74489,32.81053 179.61772,49.21481 72.54097,-3.48244 145.07468,-6.96559 217.61532,-10.45011 41.61594,12.66473 83.2271,25.32734 124.8393,37.98953 -6.0013,42.1525 -12.0033,84.30233 -18.0064,126.45199 -41.4875,13.69768 -82.97426,27.39382 -124.4629,41.08923 -140.00552,-0.009 -280.00643,-0.0198 -420.01115,-0.0312 -74.45034,-3.86945 -162.78452,-8.46162 -223.35403,-11.61135 23.3606,-2.19927 52.56105,-4.94968 86.14147,-8.11375 48.60861,-1.92937 79.87753,-3.17116 124.68592,-4.95169 98.07274,-8.06555 176.83181,-14.5436 272.89292,-22.44585 z"
       inkscape:path-effect="#path-effect2000"
       sodipodi:nodetypes="ccccccacccccccccccc" /><path
       style="fill:url(#linearGradient2438);fill-opacity:1;stroke:url(#linearGradient2444);stroke-width:6;stroke-linecap:butt;stroke-linejoin:miter;stroke-dasharray:none;stroke-opacity:1"
       d="m 723.46034,584.67914 c -33.01976,-12.02286 -61.9947,-26.65988 -99.03147,-35.04211 -37.03678,-8.38222 -82.13189,-10.5084 -68.72293,-21.77805 13.40895,-11.26965 85.32303,-31.68219 178.87739,-41.16815 93.55435,-9.48595 208.74771,-8.04549 263.54358,6.52305 54.79589,14.56853 49.19299,42.26366 38.78929,66.19835 -10.4038,23.93469 -25.6078,44.10836 -60.79288,52.83277 -35.18503,8.72441 -90.34857,5.99938 -136.46428,-0.0675 -46.11571,-6.06693 -83.17893,-15.47545 -116.1987,-27.49832 z"
       id="path2430"
       inkscape:path-effect="#path-effect2432"
       inkscape:original-d="m 719.41493,587.293 c -28.97455,-14.63633 -57.94949,-29.27335 -86.92661,-43.91196 -45.09627,-2.12528 -90.19138,-4.25146 -135.2891,-6.37871 71.91601,-20.41181 143.83009,-40.82435 215.74333,-61.23794 115.19512,1.44148 230.38848,2.88194 345.58335,4.32144 -5.602,27.69681 -11.2048,55.39194 -16.8087,83.08641 -15.2037,20.17551 -30.4077,40.34921 -45.61311,60.52232 -55.16585,-2.7242 -110.32939,-5.44923 -165.49723,-8.17543 -37.06371,-9.4079 -74.12693,-18.81642 -111.19193,-28.22613 z"
       sodipodi:nodetypes="ccccccccc"
       inkscape:export-filename="./path2430.png"
       inkscape:export-xdpi="378.092"
       inkscape:export-ydpi="378.092" /><path
       style="fill:url(#Tertiary);stroke:none;stroke-width:1px;stroke-linecap:butt;stroke-linejoin:miter;stroke-opacity:1"
       d="m 144.79689,981.74495 c -7.65694,-9.14509 -30.90659,-17.0655 -54.155352,-19.30906 -23.248765,-2.24357 -46.495341,1.19009 -65.400406,6.21521 -18.9050651,5.02513 -33.467193,11.64145 -39.601736,23.71343 -6.134544,12.07197 -3.840994,29.59747 14.37335007,36.26957 18.21434493,6.6722 52.34736893,2.492 77.76295793,-2.1509 25.415586,-4.6428 42.112596,-9.7481 54.428216,-17.4857 12.31562,-7.7376 20.24991,-18.10746 12.59297,-27.25255 z"
       id="path6591"
       inkscape:path-effect="#path-effect6593"
       inkscape:original-d="m 160.3884,980.51985 c -23.24865,-7.9194 -46.4983,-15.8398 -69.748956,-23.76121 -23.246505,3.4348 -46.493081,6.86847 -69.741121,10.3012 -14.5617092,6.61759 -29.1238362,13.23392 -43.687255,19.84938 2.294638,17.52718 4.588185,35.05268 6.880777,52.57748 34.135383,-4.1793 68.268401,-8.3595 102.401102,-12.5407 16.698693,-5.1045 33.395713,-10.2097 50.092063,-15.316 7.93563,-10.3693 15.86993,-20.73911 23.80339,-31.11015 z" /><path
       style="fill:url(#Secondary);stroke:none;stroke-width:1px;stroke-linecap:butt;stroke-linejoin:miter;stroke-opacity:1"
       d="m 353.87556,930.37303 c -25.33444,-7.19021 -122.17013,9.56684 -181.60633,24.35067 -59.4362,14.78383 -81.47103,27.59369 -92.320469,39.93031 -10.849438,12.33659 -10.511822,24.19709 10.107531,34.31839 20.619358,10.1212 61.517658,18.5029 97.701328,13.357 36.18366,-5.1459 67.65149,-23.8184 106.46927,-48.72385 38.81778,-24.90546 84.9831,-56.04231 59.64867,-63.23252 z"
       id="path6022"
       inkscape:path-effect="#path-effect6024"
       inkscape:original-d="m 425.37603,906.42591 c -96.83471,16.75805 -193.6704,33.5151 -290.5071,50.27114 -22.03521,12.81166 -44.070041,25.62152 -66.107277,38.43119 0.338639,11.86236 0.676257,23.72286 1.012895,35.58316 40.900942,8.383 81.799242,16.7647 122.697362,25.1455 31.47008,-18.6722 62.9379,-37.3447 94.40535,-56.01856 46.16818,-31.1371 92.33351,-62.27395 138.49877,-93.41243 z"
       inkscape:export-filename="./path6022.png"
       inkscape:export-xdpi="96"
       inkscape:export-ydpi="96"
       sodipodi:nodetypes="ccccccc" /><path
       style="fill:url(#linearGradient2698);fill-opacity:1;stroke:url(#linearGradient2704);stroke-width:6;stroke-linecap:butt;stroke-linejoin:miter;stroke-dasharray:none;stroke-opacity:1"
       d="m 1019.7079,1091.936 c 31.2121,-36.2747 36.7597,-107.68192 26.6594,-154.58859 -10.1002,-46.90667 -35.8484,-69.31185 -103.74043,-80.0019 -67.89201,-10.69006 -177.92285,-9.66368 -250.08741,-0.76064 -72.16457,8.90303 -106.4587,25.68222 -137.24244,34.77393 -30.78374,9.09171 -58.05531,10.49537 -100.6917,19.9506 -42.63639,9.45523 -100.63217,26.96103 -142.89041,44.08479 -42.25824,17.12375 -68.77341,33.86332 -88.8713,50.66861 -20.09789,16.8052 -33.77555,33.6738 75.94651,54.4239 109.72207,20.7502 342.83418,45.3799 487.83181,57.1235 144.99763,11.7435 201.87395,10.6005 233.08597,-25.6742 z"
       id="path2690"
       inkscape:path-effect="#path-effect2692"
       inkscape:original-d="m 1045.3724,1127.0677 c 5.5486,-71.4063 11.0962,-142.81354 16.6429,-214.22179 -25.7483,-22.40507 -51.4965,-44.81025 -77.24618,-67.21687 -110.03425,1.02742 -220.06509,2.0538 -330.09914,3.0792 -34.2945,16.78086 -68.58863,33.56005 -102.88444,50.33858 -27.27221,1.40474 -54.54378,2.8084 -81.81798,4.21114 -57.99827,17.50786 -115.99405,35.01367 -173.99433,52.51953 -26.51583,16.74162 -53.031,33.48119 -79.54889,50.22081 -13.67753,16.8706 -27.35519,33.7392 -41.03468,50.6077 233.12243,24.6318 466.23455,49.2615 699.35032,73.8908 56.8796,-1.1421 113.75592,-2.2851 170.63242,-3.4291 z"
       sodipodi:nodetypes="ccccccccccc"
       inkscape:export-filename="./path2690.png"
       inkscape:export-xdpi="96"
       inkscape:export-ydpi="96" /><path
       style="fill:url(#Tertiary);stroke:none;stroke-width:1px;stroke-linecap:butt;stroke-linejoin:miter;stroke-opacity:1"
       d="m 439.04959,570.3647 c -67.2659,11.34432 -134.53099,22.68852 -170.96809,25.33168 -36.4371,2.64316 -42.04629,-3.41681 -47.65463,-9.47587 18.79077,-3.88388 40.54995,-8.38131 58.0277,-12.76709 17.47775,-4.38578 49.0304,-13.45791 66.10729,-17.32292 17.07689,-3.86502 43.34213,-8.12534 50.30813,-22.65819 6.96599,-14.53284 -0.8906,-39.05358 -8.90111,-64.05473 0,0 53.08071,100.94712 53.08071,100.94712 z"
       id="path7373"
       inkscape:path-effect="#path-effect7375"
       inkscape:original-d="m 439.04959,570.3647 c 0,0 -134.5308,22.68965 -201.7977,34.03298 -5.60745,-6.05818 -16.82502,-18.17717 -16.82502,-18.17717 0,0 40.55019,-8.38015 56.37231,-11.65165 19.13348,-5.50003 50.68613,-14.57216 68.16239,-19.59828 16.67736,-2.70397 42.94261,-6.96429 65.03885,-10.54955 -8.16382,-25.48176 -24.03154,-75.00345 -24.03154,-75.00345 z"
       sodipodi:nodetypes="cccccccc" /><path
       style="fill:url(#Main);stroke:none;stroke-width:1px;stroke-linecap:butt;stroke-linejoin:miter;stroke-opacity:1"
       d="m 164.89789,681.41722 c -20.92058,0.34422 -54.68511,-3.95311 -83.334474,-8.72527 -28.649364,-4.77215 -52.182455,-10.01912 -75.7148537,-15.26593 0,0 16.2887507,-130.47294 16.2887507,-130.47294 0,0 74.652862,-11.88131 74.652862,-11.88131 0,0 50.281005,10.22378 50.281005,10.22378 0,0 54.9005,145.80654 54.9005,145.80654 -8.07674,4.98554 -16.1532,9.97091 -37.07379,10.31513 z"
       id="path7377"
       inkscape:path-effect="#path-effect7379"
       inkscape:original-d="M 177.74146,686.05872 C 143.9772,681.7623 110.21267,677.46497 76.445758,673.16646 52.913887,667.92054 5.8485623,657.42602 5.8485623,657.42602 l 16.2887507,-130.47294 74.652862,-11.88131 50.281005,10.22378 54.9005,145.80654 c 0,0 -16.15248,9.97208 -24.23022,14.95663 z"
       sodipodi:nodetypes="cccccccc" /><path
       style="fill:url(#Secondary);stroke:none;stroke-width:1px;stroke-linecap:butt;stroke-linejoin:miter;stroke-opacity:1"
       d="M 69.041957,491.06917 C 76.816461,426.3959 84.590704,361.72479 95.66906,297.05793 c 11.07836,-64.66687 25.4596,-129.322 68.34632,-161.31605 42.88671,-31.99405 114.27256,-31.32243 218.97098,-31.01899 104.69842,0.30344 242.6996,0.23868 354.14825,0.36861 111.44865,0.12993 196.33861,0.45453 238.39948,-3.5644 42.06091,-4.018941 41.29171,-12.383263 40.52271,-20.746664 0,0 -23.17264,-31.126321 -23.17264,-31.126321 0,0 -621.35697,-27.296326 -621.35697,-27.296326 0,0 -352.986347,-13.4792262 -352.986347,-13.4792262 0,0 -4.920067,376.6938472 -4.920067,376.6938472 0,0 5.391194,111.76499 5.391194,111.76499 0,0 50.029987,-6.26823 50.029987,-6.26823 z"
       id="path7381"
       inkscape:path-effect="#path-effect7383"
       inkscape:original-d="m 69.041957,491.06917 c 0,0 15.549851,-129.34425 23.323511,-194.01982 14.383112,-64.65803 28.764362,-129.31317 43.145472,-193.97319 71.39114,0.67266 142.77699,1.34428 214.16613,2.01494 138.00771,-0.0638 276.00889,-0.12853 414.01182,-0.19429 84.89437,0.32561 169.78433,0.65022 254.67501,0.97383 -0.768,-8.362568 -2.3071,-25.090204 -2.3071,-25.090204 L 992.88416,49.654115 371.52719,22.357789 18.540843,8.8785628 13.620776,385.57241 19.01197,497.3374 Z"
       sodipodi:nodetypes="ccccccccccccc" /><path
       style="fill:url(#Secondary);stroke:none;stroke-width:1px;stroke-linecap:butt;stroke-linejoin:miter;stroke-opacity:1"
       d="m 752.1386,4.3622842 c 0,0 -1.11405,27.9458818 -1.11405,27.9458818 0,0 -30.66897,-2.57394 -30.66897,-2.57394 0,0 -0.20753,-20.6233399 -0.20753,-20.6233399 0,0 31.99055,-4.7486019 31.99055,-4.7486019 z"
       id="path7385"
       inkscape:path-effect="#path-effect7387"
       inkscape:original-d="m 752.1386,4.3622842 c 0,0 -1.11405,27.9458818 -1.11405,27.9458818 0,0 -30.66897,-2.57394 -30.66897,-2.57394 0,0 -0.20753,-20.6233399 -0.20753,-20.6233399 0,0 31.99055,-4.7486019 31.99055,-4.7486019 z"
       inkscape:export-filename="./path7385.png"
       inkscape:export-xdpi="96"
       inkscape:export-ydpi="96" /><path
       style="fill:url(#Secondary);stroke:none;stroke-width:1px;stroke-linecap:butt;stroke-linejoin:miter;stroke-opacity:1"
       d="M 157.87108,673.6562 C 138.15753,670.26661 109.23995,665.01362 84.88536,658.53304 60.530771,652.05245 40.742477,644.34476 27.558234,638.24667 14.373992,632.14858 7.7921311,627.65869 1.2115557,623.16968 c 0,0 17.5897623,-104.29525 17.5897623,-104.29525 0,0 77.988857,-3.80266 77.988857,-3.80266 0,0 54.902875,9.9233 54.902875,9.9233 0,0 46.90178,155.10167 46.90178,155.10167 -10.50589,-1.52559 -21.01021,-3.05095 -40.72375,-6.44054 z"
       id="path8005"
       inkscape:path-effect="#path-effect8009"
       inkscape:original-d="M 167.07717,675.51998 C 138.15738,670.26741 109.23981,665.01441 80.318485,659.75992 60.530565,652.05298 40.74227,644.34529 20.953282,636.63671 14.373844,632.14879 1.2115557,623.16968 1.2115557,623.16968 l 17.5897623,-104.29525 77.988857,-3.80266 54.902875,9.9233 46.90178,155.10167 c 0,0 -21.01033,-3.05011 -31.51766,-4.57676 z"
       sodipodi:nodetypes="ccccccccc"
       inkscape:export-filename="./path8005.png"
       inkscape:export-xdpi="96"
       inkscape:export-ydpi="96" /></g></svg>
