<?xml version="1.0" standalone="no"?>
<!DOCTYPE svg PUBLIC "-//W3C//DTD SVG 1.1//EN" 
  "http://www.w3.org/Graphics/SVG/1.1/DTD/svg11.dtd">
<svg width="1024" height="1024" viewBox="0 0 1024 1024"
     xmlns="http://www.w3.org/2000/svg" version="1.1">
<desc>Skater.blend, (Blender 3.5.1)</desc>
<polygon stroke="black" stroke-width="1" fill="rgb(204, 204, 204)" fill-opacity="0.25" points="741.617,17.994 740.337,24.180 733.186,24.057 734.837,20.916 " />
<polygon stroke="black" stroke-width="1" fill="rgb(204, 204, 204)" fill-opacity="0.25" points="823.370,8.865 824.120,25.618 789.490,25.024 791.420,9.270 " />
<polygon stroke="black" stroke-width="1" fill="rgb(204, 204, 204)" fill-opacity="0.25" points="791.420,9.270 789.490,25.024 760.558,24.527 761.865,12.684 " />
<polygon stroke="black" stroke-width="1" fill="rgb(204, 204, 204)" fill-opacity="0.25" points="761.865,12.684 760.558,24.527 740.337,24.180 741.617,17.994 " />
<polygon stroke="black" stroke-width="1" fill="rgb(204, 204, 204)" fill-opacity="0.25" points="866.622,21.202 859.695,24.559 858.120,27.907 865.574,27.705 " />
<polygon stroke="black" stroke-width="1" fill="rgb(204, 204, 204)" fill-opacity="0.25" points="951.357,7.921 918.095,9.817 916.813,26.315 952.911,25.337 " />
<polygon stroke="black" stroke-width="1" fill="rgb(204, 204, 204)" fill-opacity="0.25" points="918.095,9.817 887.468,14.736 886.653,27.133 916.813,26.315 " />
<polygon stroke="black" stroke-width="1" fill="rgb(204, 204, 204)" fill-opacity="0.25" points="1011.060,10.404 979.415,8.315 979.995,24.602 1011.044,23.761 " />
<polygon stroke="black" stroke-width="1" fill="rgb(204, 204, 204)" fill-opacity="0.25" points="979.415,8.315 951.357,7.921 952.911,25.337 979.995,24.602 " />
<polygon stroke="black" stroke-width="1" fill="rgb(204, 204, 204)" fill-opacity="0.25" points="887.468,14.736 866.622,21.202 865.574,27.705 886.653,27.133 " />
<polygon stroke="black" stroke-width="1" fill="rgb(204, 204, 204)" fill-opacity="0.25" points="886.551,147.588 37.459,148.098 37.459,207.885 886.551,187.031 " />
<polygon stroke="black" stroke-width="1" fill="rgb(204, 204, 204)" fill-opacity="0.25" points="886.552,61.878 37.460,25.464 37.459,42.570 886.551,77.967 " />
<polygon stroke="black" stroke-width="1" fill="rgb(204, 204, 204)" fill-opacity="0.25" points="886.551,86.276 37.459,55.165 37.459,92.893 886.551,111.167 " />
<polygon stroke="black" stroke-width="1" fill="rgb(204, 204, 204)" fill-opacity="0.25" points="886.551,111.167 37.459,92.893 37.459,148.098 886.551,147.588 " />
<polygon stroke="black" stroke-width="1" fill="rgb(204, 204, 204)" fill-opacity="0.25" points="886.551,187.031 37.459,207.885 37.459,258.222 886.551,220.241 " />
<polygon stroke="black" stroke-width="1" fill="rgb(204, 204, 204)" fill-opacity="0.25" points="886.551,220.241 37.459,258.222 37.459,314.913 886.551,248.186 " />
<polygon stroke="black" stroke-width="1" fill="rgb(204, 204, 204)" fill-opacity="0.25" points="886.551,77.967 37.459,42.570 37.459,55.165 886.551,86.276 " />
<polygon stroke="black" stroke-width="1" fill="rgb(204, 204, 204)" fill-opacity="0.25" points="986.541,82.135 886.551,77.967 886.551,86.276 986.541,89.940 " />
<polygon stroke="black" stroke-width="1" fill="rgb(204, 204, 204)" fill-opacity="0.25" points="986.541,113.319 886.551,111.167 886.551,147.588 986.541,147.528 " />
<polygon stroke="black" stroke-width="1" fill="rgb(204, 204, 204)" fill-opacity="0.25" points="986.541,89.940 886.551,86.276 886.551,111.167 986.541,113.319 " />
<polygon stroke="black" stroke-width="1" fill="rgb(204, 204, 204)" fill-opacity="0.25" points="986.541,66.166 886.552,61.878 886.551,77.967 986.541,82.135 " />
<polygon stroke="black" stroke-width="1" fill="rgb(204, 204, 204)" fill-opacity="0.25" points="986.541,147.528 886.551,147.588 886.551,187.031 986.541,184.576 " />
<polygon stroke="black" stroke-width="1" fill="rgb(204, 204, 204)" fill-opacity="0.25" points="37.681,314.916 37.761,314.910 886.020,248.059 886.020,248.059 " />
<polygon stroke="black" stroke-width="1" fill="rgb(204, 204, 204)" fill-opacity="0.25" points="886.449,220.302 886.449,220.302 886.449,187.016 886.449,187.016 " />
<polygon stroke="black" stroke-width="1" fill="rgb(204, 204, 204)" fill-opacity="0.25" points="886.449,248.437 886.449,248.437 886.449,220.302 886.449,220.302 " />
<polygon stroke="black" stroke-width="1" fill="rgb(204, 204, 204)" fill-opacity="0.25" points="986.045,184.697 986.096,184.695 886.940,187.489 886.967,187.488 " />
<polygon stroke="black" stroke-width="1" fill="rgb(204, 204, 204)" fill-opacity="0.25" points="403.733,513.113 372.806,524.456 391.035,571.303 422.529,566.591 " />
<polygon stroke="black" stroke-width="1" fill="rgb(204, 204, 204)" fill-opacity="0.25" points="372.806,524.456 274.273,560.593 283.683,587.365 391.035,571.303 " />
<polygon stroke="black" stroke-width="1" fill="rgb(204, 204, 204)" fill-opacity="0.25" points="148.361,590.842 102.593,590.293 101.693,787.642 208.215,799.139 " />
<polygon stroke="black" stroke-width="1" fill="rgb(204, 204, 204)" fill-opacity="0.25" points="0.000,1024.000 0.000,1024.000 0.000,1024.000 0.000,1024.000 " />
<polygon stroke="black" stroke-width="1" fill="rgb(204, 204, 204)" fill-opacity="0.25" points="0.000,1024.000 0.000,1024.000 0.000,1024.000 0.000,1024.000 " />
<polygon stroke="black" stroke-width="1" fill="rgb(204, 204, 204)" fill-opacity="0.25" points="0.000,1024.000 0.000,1024.000 0.000,1024.000 0.000,1024.000 " />
<polygon stroke="black" stroke-width="1" fill="rgb(204, 204, 204)" fill-opacity="0.25" points="0.000,1024.000 0.000,1024.000 0.000,1024.000 0.000,1024.000 " />
<polygon stroke="black" stroke-width="1" fill="rgb(204, 204, 204)" fill-opacity="0.25" points="0.000,1024.000 0.000,1024.000 0.000,1024.000 0.000,1024.000 " />
<polygon stroke="black" stroke-width="1" fill="rgb(204, 204, 204)" fill-opacity="0.25" points="0.000,1024.000 0.000,1024.000 0.000,1024.000 0.000,1024.000 " />
<polygon stroke="black" stroke-width="1" fill="rgb(204, 204, 204)" fill-opacity="0.25" points="0.000,1024.000 0.000,1024.000 0.000,1024.000 0.000,1024.000 " />
<polygon stroke="black" stroke-width="1" fill="rgb(204, 204, 204)" fill-opacity="0.25" points="0.000,1024.000 0.000,1024.000 0.000,1024.000 0.000,1024.000 " />
<polygon stroke="black" stroke-width="1" fill="rgb(204, 204, 204)" fill-opacity="0.25" points="902.886,959.860 928.427,959.692 932.784,905.259 902.483,897.837 " />
<polygon stroke="black" stroke-width="1" fill="rgb(204, 204, 204)" fill-opacity="0.25" points="630.372,968.099 729.733,961.283 729.733,885.228 630.372,902.341 " />
<polygon stroke="black" stroke-width="1" fill="rgb(204, 204, 204)" fill-opacity="0.25" points="630.372,1011.956 729.733,1011.956 729.733,961.283 630.372,968.099 " />
<polygon stroke="black" stroke-width="1" fill="rgb(204, 204, 204)" fill-opacity="0.25" points="902.886,1011.956 934.727,1011.956 928.427,959.692 902.886,959.860 " />
<polygon stroke="black" stroke-width="1" fill="rgb(204, 204, 204)" fill-opacity="0.25" points="900.882,540.758 901.726,583.123 973.163,583.406 980.886,541.088 " />
<polygon stroke="black" stroke-width="1" fill="rgb(204, 204, 204)" fill-opacity="0.25" points="980.886,541.088 973.163,583.406 994.256,585.618 1004.509,541.186 " />
<polygon stroke="black" stroke-width="1" fill="rgb(204, 204, 204)" fill-opacity="0.25" points="690.051,507.521 674.544,535.810 801.737,540.206 801.737,507.521 " />
<polygon stroke="black" stroke-width="1" fill="rgb(204, 204, 204)" fill-opacity="0.25" points="983.155,507.521 980.886,541.088 1004.509,541.186 1007.447,507.521 " />
<polygon stroke="black" stroke-width="1" fill="rgb(204, 204, 204)" fill-opacity="0.25" points="107.410,710.793 107.410,717.212 107.410,707.984 107.410,707.984 " />
<polygon stroke="black" stroke-width="1" fill="rgb(204, 204, 204)" fill-opacity="0.25" points="674.544,535.810 630.946,578.224 800.894,589.262 801.737,540.206 " />
<polygon stroke="black" stroke-width="1" fill="rgb(204, 204, 204)" fill-opacity="0.25" points="992.399,689.300 1019.177,692.608 1011.301,679.701 992.003,675.796 " />
<polygon stroke="black" stroke-width="1" fill="rgb(204, 204, 204)" fill-opacity="0.25" points="107.410,710.793 107.410,710.793 107.410,707.984 107.410,694.906 " />
<polygon stroke="black" stroke-width="1" fill="rgb(204, 204, 204)" fill-opacity="0.25" points="682.204,688.696 830.497,676.146 834.395,660.599 678.911,668.872 " />
<polygon stroke="black" stroke-width="1" fill="rgb(204, 204, 204)" fill-opacity="0.25" points="1015.832,522.569 1017.718,507.521 1007.447,507.521 1004.509,541.186 " />
<polygon stroke="black" stroke-width="1" fill="rgb(204, 204, 204)" fill-opacity="0.25" points="928.427,959.692 934.727,1011.956 975.049,1011.956 969.551,965.792 " />
<polygon stroke="black" stroke-width="1" fill="rgb(204, 204, 204)" fill-opacity="0.25" points="969.551,965.792 975.049,1011.956 1010.146,1011.956 1007.355,991.533 " />
<polygon stroke="black" stroke-width="1" fill="rgb(204, 204, 204)" fill-opacity="0.25" points="694.295,815.475 788.881,818.282 807.865,761.674 694.295,766.998 " />
<polygon stroke="black" stroke-width="1" fill="rgb(204, 204, 204)" fill-opacity="0.25" points="694.295,766.998 807.865,761.674 816.182,734.958 694.295,738.991 " />
<polygon stroke="black" stroke-width="1" fill="rgb(204, 204, 204)" fill-opacity="0.25" points="106.770,782.989 106.770,782.989 107.410,766.998 107.410,766.998 " />
<polygon stroke="black" stroke-width="1" fill="rgb(204, 204, 204)" fill-opacity="0.25" points="107.410,766.998 107.410,766.998 107.410,708.997 107.410,708.997 " />
<polygon stroke="black" stroke-width="1" fill="rgb(204, 204, 204)" fill-opacity="0.25" points="953.328,774.717 982.172,758.757 1012.311,740.531 973.689,743.179 " />
<polygon stroke="black" stroke-width="1" fill="rgb(204, 204, 204)" fill-opacity="0.25" points="973.689,743.179 1012.311,740.531 1014.779,721.151 986.839,725.361 " />
<polygon stroke="black" stroke-width="1" fill="rgb(204, 204, 204)" fill-opacity="0.25" points="932.784,905.259 928.427,959.692 969.551,965.792 964.444,908.351 " />
<polygon stroke="black" stroke-width="1" fill="rgb(204, 204, 204)" fill-opacity="0.25" points="964.444,908.351 969.551,965.792 1007.355,991.533 983.211,878.453 " />
<polygon stroke="black" stroke-width="1" fill="rgb(204, 204, 204)" fill-opacity="0.25" points="106.770,782.989 106.770,782.989 107.410,766.998 107.410,766.998 " />
<polygon stroke="black" stroke-width="1" fill="rgb(204, 204, 204)" fill-opacity="0.25" points="107.410,766.998 107.410,766.998 107.410,738.991 107.410,708.997 " />
<polygon stroke="black" stroke-width="1" fill="rgb(204, 204, 204)" fill-opacity="0.25" points="163.881,766.998 509.684,766.998 509.684,738.991 163.881,738.991 " />
<polygon stroke="black" stroke-width="1" fill="rgb(204, 204, 204)" fill-opacity="0.25" points="169.639,787.468 509.684,809.861 509.684,766.998 163.881,766.998 " />
<polygon stroke="black" stroke-width="1" fill="rgb(204, 204, 204)" fill-opacity="0.25" points="165.005,713.289 517.687,689.266 519.866,672.427 165.311,702.992 " />
<polygon stroke="black" stroke-width="1" fill="rgb(204, 204, 204)" fill-opacity="0.25" points="162.480,681.781 163.101,694.743 504.129,613.661 499.702,601.405 " />
<polygon stroke="black" stroke-width="1" fill="rgb(204, 204, 204)" fill-opacity="0.25" points="163.101,694.743 165.311,702.992 519.866,672.427 504.129,613.661 " />
<polygon stroke="black" stroke-width="1" fill="rgb(204, 204, 204)" fill-opacity="0.25" points="73.177,1011.956 436.439,1011.956 436.439,977.030 73.177,999.876 " />
<polygon stroke="black" stroke-width="1" fill="rgb(204, 204, 204)" fill-opacity="0.25" points="73.177,999.876 436.439,977.030 436.439,924.768 73.177,982.134 " />
<polygon stroke="black" stroke-width="1" fill="rgb(204, 204, 204)" fill-opacity="0.25" points="509.684,766.998 694.295,766.998 694.295,738.991 509.684,738.991 " />
<polygon stroke="black" stroke-width="1" fill="rgb(204, 204, 204)" fill-opacity="0.25" points="509.684,809.861 694.295,815.475 694.295,766.998 509.684,766.998 " />
<polygon stroke="black" stroke-width="1" fill="rgb(204, 204, 204)" fill-opacity="0.25" points="517.687,689.266 682.204,688.696 678.911,668.872 519.866,672.427 " />
<polygon stroke="black" stroke-width="1" fill="rgb(204, 204, 204)" fill-opacity="0.25" points="436.439,1011.956 630.372,1011.956 630.372,968.099 436.439,977.030 " />
<polygon stroke="black" stroke-width="1" fill="rgb(204, 204, 204)" fill-opacity="0.25" points="436.439,977.030 630.372,968.099 630.372,902.341 436.439,924.768 " />
<polygon stroke="black" stroke-width="1" fill="rgb(204, 204, 204)" fill-opacity="0.25" points="807.865,761.674 911.247,763.687 915.816,736.064 816.182,734.958 " />
<polygon stroke="black" stroke-width="1" fill="rgb(204, 204, 204)" fill-opacity="0.25" points="788.881,818.282 902.728,802.255 911.247,763.687 807.865,761.674 " />
<polygon stroke="black" stroke-width="1" fill="rgb(204, 204, 204)" fill-opacity="0.25" points="830.497,676.146 924.328,680.891 926.645,662.569 834.395,660.599 " />
<polygon stroke="black" stroke-width="1" fill="rgb(204, 204, 204)" fill-opacity="0.25" points="801.737,507.521 801.737,540.206 900.882,540.758 900.882,507.521 " />
<polygon stroke="black" stroke-width="1" fill="rgb(204, 204, 204)" fill-opacity="0.25" points="1002.865,595.315 1015.832,522.569 1004.509,541.186 994.256,585.618 " />
<polygon stroke="black" stroke-width="1" fill="rgb(204, 204, 204)" fill-opacity="0.25" points="729.733,1011.956 837.014,1011.956 837.014,960.427 729.733,961.283 " />
<polygon stroke="black" stroke-width="1" fill="rgb(204, 204, 204)" fill-opacity="0.25" points="729.733,961.283 837.014,960.427 849.329,876.905 729.733,885.228 " />
<polygon stroke="black" stroke-width="1" fill="rgb(204, 204, 204)" fill-opacity="0.25" points="823.435,705.159 920.128,708.109 924.328,680.891 830.497,676.146 " />
<polygon stroke="black" stroke-width="1" fill="rgb(204, 204, 204)" fill-opacity="0.25" points="513.739,713.796 688.169,713.507 682.204,688.696 517.687,689.266 " />
<polygon stroke="black" stroke-width="1" fill="rgb(204, 204, 204)" fill-opacity="0.25" points="164.450,725.968 513.739,713.796 517.687,689.266 165.005,713.289 " />
<polygon stroke="black" stroke-width="1" fill="rgb(204, 204, 204)" fill-opacity="0.25" points="1015.345,529.288 1016.741,507.521 1017.718,507.521 1015.832,522.569 " />
<polygon stroke="black" stroke-width="1" fill="rgb(204, 204, 204)" fill-opacity="0.25" points="688.169,713.507 823.435,705.159 830.497,676.146 682.204,688.696 " />
<polygon stroke="black" stroke-width="1" fill="rgb(204, 204, 204)" fill-opacity="0.25" points="107.410,709.907 107.410,709.907 107.410,710.793 107.410,710.793 " />
<polygon stroke="black" stroke-width="1" fill="rgb(204, 204, 204)" fill-opacity="0.25" points="989.656,707.090 1017.008,706.689 1019.177,692.608 992.399,689.300 " />
<polygon stroke="black" stroke-width="1" fill="rgb(204, 204, 204)" fill-opacity="0.25" points="107.410,709.907 107.410,727.956 107.410,717.212 107.410,710.793 " />
<polygon stroke="black" stroke-width="1" fill="rgb(204, 204, 204)" fill-opacity="0.25" points="1013.389,528.126 1014.594,507.521 1015.740,507.521 1014.730,528.990 " />
<polygon stroke="black" stroke-width="1" fill="rgb(204, 204, 204)" fill-opacity="0.25" points="107.410,708.997 107.410,738.991 107.410,727.956 107.410,709.907 " />
<polygon stroke="black" stroke-width="1" fill="rgb(204, 204, 204)" fill-opacity="0.25" points="986.839,725.361 1014.779,721.151 1017.008,706.689 989.656,707.090 " />
<polygon stroke="black" stroke-width="1" fill="rgb(204, 204, 204)" fill-opacity="0.25" points="107.410,708.997 107.410,708.997 107.410,709.907 107.410,709.907 " />
<polygon stroke="black" stroke-width="1" fill="rgb(204, 204, 204)" fill-opacity="0.25" points="694.295,738.991 816.182,734.958 823.435,705.159 688.169,713.507 " />
<polygon stroke="black" stroke-width="1" fill="rgb(204, 204, 204)" fill-opacity="0.25" points="163.881,738.991 509.684,738.991 513.739,713.796 164.450,725.968 " />
<polygon stroke="black" stroke-width="1" fill="rgb(204, 204, 204)" fill-opacity="0.25" points="509.684,738.991 694.295,738.991 688.169,713.507 513.739,713.796 " />
<polygon stroke="black" stroke-width="1" fill="rgb(204, 204, 204)" fill-opacity="0.25" points="816.182,734.958 915.816,736.064 920.128,708.109 823.435,705.159 " />
<polygon stroke="black" stroke-width="1" fill="rgb(204, 204, 204)" fill-opacity="0.25" points="915.816,736.064 986.839,725.361 989.656,707.090 920.128,708.109 " />
<polygon stroke="black" stroke-width="1" fill="rgb(204, 204, 204)" fill-opacity="0.25" points="920.128,708.109 989.656,707.090 992.399,689.300 924.328,680.891 " />
<polygon stroke="black" stroke-width="1" fill="rgb(204, 204, 204)" fill-opacity="0.25" points="911.247,763.687 973.689,743.179 986.839,725.361 915.816,736.064 " />
<polygon stroke="black" stroke-width="1" fill="rgb(204, 204, 204)" fill-opacity="0.25" points="902.728,802.255 953.328,774.717 973.689,743.179 911.247,763.687 " />
<polygon stroke="black" stroke-width="1" fill="rgb(204, 204, 204)" fill-opacity="0.25" points="924.328,680.891 992.399,689.300 992.003,675.796 926.645,662.569 " />
<polygon stroke="black" stroke-width="1" fill="rgb(204, 204, 204)" fill-opacity="0.25" points="900.882,507.521 900.882,540.758 980.886,541.088 983.155,507.521 " />
<polygon stroke="black" stroke-width="1" fill="rgb(204, 204, 204)" fill-opacity="0.25" points="837.014,1011.956 902.886,1011.956 902.886,959.860 837.014,960.427 " />
<polygon stroke="black" stroke-width="1" fill="rgb(204, 204, 204)" fill-opacity="0.25" points="837.014,960.427 902.886,959.860 902.483,897.837 849.329,876.905 " />
<polygon stroke="black" stroke-width="1" fill="rgb(204, 204, 204)" fill-opacity="0.25" points="801.737,540.206 800.894,589.262 901.726,583.123 900.882,540.758 " />
<polygon stroke="black" stroke-width="1" fill="rgb(204, 204, 204)" fill-opacity="0.25" points="1014.730,528.990 1015.740,507.521 1016.741,507.521 1015.345,529.288 " />
<polygon stroke="black" stroke-width="1" fill="rgb(204, 204, 204)" fill-opacity="0.25" points="1011.894,520.694 1013.494,507.521 1014.594,507.521 1013.389,528.126 " />
<polygon stroke="black" stroke-width="1" fill="rgb(204, 204, 204)" fill-opacity="0.25" points="107.410,738.991 163.881,738.991 164.450,725.968 107.410,727.956 " />
<polygon stroke="black" stroke-width="1" fill="rgb(204, 204, 204)" fill-opacity="0.25" points="107.410,727.956 164.450,725.968 165.005,713.289 107.410,717.212 " />
<polygon stroke="black" stroke-width="1" fill="rgb(204, 204, 204)" fill-opacity="0.25" points="13.854,1003.607 73.177,999.876 73.177,982.134 13.854,991.502 " />
<polygon stroke="black" stroke-width="1" fill="rgb(204, 204, 204)" fill-opacity="0.25" points="13.854,1011.956 73.177,1011.956 73.177,999.876 13.854,1003.607 " />
<polygon stroke="black" stroke-width="1" fill="rgb(204, 204, 204)" fill-opacity="0.25" points="107.410,707.984 107.410,707.984 165.311,702.992 163.101,694.743 " />
<polygon stroke="black" stroke-width="1" fill="rgb(204, 204, 204)" fill-opacity="0.25" points="107.410,694.906 107.410,707.984 163.101,694.743 162.480,681.781 " />
<polygon stroke="black" stroke-width="1" fill="rgb(204, 204, 204)" fill-opacity="0.25" points="107.410,717.212 165.005,713.289 165.311,702.992 107.410,707.984 " />
<polygon stroke="black" stroke-width="1" fill="rgb(204, 204, 204)" fill-opacity="0.25" points="106.770,782.989 169.639,787.468 163.881,766.998 107.410,766.998 " />
<polygon stroke="black" stroke-width="1" fill="rgb(204, 204, 204)" fill-opacity="0.25" points="107.410,766.998 163.881,766.998 163.881,738.991 107.410,738.991 " />
<polygon stroke="black" stroke-width="1" fill="rgb(204, 204, 204)" fill-opacity="0.25" points="111.190,863.363 59.100,863.767 58.229,885.048 110.352,885.289 " />
<polygon stroke="black" stroke-width="1" fill="rgb(204, 204, 204)" fill-opacity="0.25" points="227.862,855.410 179.065,863.696 178.294,885.931 226.559,895.992 " />
<polygon stroke="black" stroke-width="1" fill="rgb(204, 204, 204)" fill-opacity="0.25" points="179.065,863.696 111.190,863.363 110.352,885.289 178.294,885.931 " />
<polygon stroke="black" stroke-width="1" fill="rgb(204, 204, 204)" fill-opacity="0.25" points="27.965,902.074 53.635,896.898 45.563,923.121 31.972,924.673 " />
<polygon stroke="black" stroke-width="1" fill="rgb(204, 204, 204)" fill-opacity="0.25" points="27.965,823.173 36.841,822.483 36.841,822.483 27.965,823.173 " />
<polygon stroke="black" stroke-width="1" fill="rgb(204, 204, 204)" fill-opacity="0.25" points="23.014,826.044 27.965,823.173 27.965,823.173 23.014,826.044 " />
<polygon stroke="black" stroke-width="1" fill="rgb(204, 204, 204)" fill-opacity="0.25" points="48.482,853.206 48.482,853.206 36.841,822.483 36.841,822.483 " />
<polygon stroke="black" stroke-width="1" fill="rgb(204, 204, 204)" fill-opacity="0.25" points="17.479,902.108 27.965,902.074 31.972,924.673 22.441,918.179 " />
<polygon stroke="black" stroke-width="1" fill="rgb(204, 204, 204)" fill-opacity="0.25" points="23.014,826.044 27.965,823.173 27.965,848.548 17.479,848.517 " />
<polygon stroke="black" stroke-width="1" fill="rgb(204, 204, 204)" fill-opacity="0.25" points="53.635,896.898 53.635,896.898 48.482,853.206 48.482,853.206 " />
<polygon stroke="black" stroke-width="1" fill="rgb(204, 204, 204)" fill-opacity="0.25" points="27.965,823.173 36.841,822.483 48.482,853.206 27.965,848.548 " />
<polygon stroke="black" stroke-width="1" fill="rgb(204, 204, 204)" fill-opacity="0.25" points="45.563,923.121 45.563,923.121 53.635,896.898 53.635,896.898 " />
<polygon stroke="black" stroke-width="1" fill="rgb(204, 204, 204)" fill-opacity="0.25" points="17.479,848.517 27.965,848.548 27.965,902.074 17.479,902.108 " />
<polygon stroke="black" stroke-width="1" fill="rgb(204, 204, 204)" fill-opacity="0.25" points="27.965,848.548 48.482,853.206 53.635,896.898 27.965,902.074 " />
<polygon stroke="black" stroke-width="1" fill="rgb(204, 204, 204)" fill-opacity="0.25" points="22.441,918.179 22.441,918.179 17.479,902.108 17.479,902.108 " />
<polygon stroke="black" stroke-width="1" fill="rgb(204, 204, 204)" fill-opacity="0.25" points="17.479,848.517 17.479,848.517 23.014,826.044 23.014,826.044 " />
<polygon stroke="black" stroke-width="1" fill="rgb(204, 204, 204)" fill-opacity="0.25" points="22.441,918.179 31.972,924.673 31.972,924.673 22.441,918.179 " />
<polygon stroke="black" stroke-width="1" fill="rgb(204, 204, 204)" fill-opacity="0.25" points="31.972,924.673 45.563,923.121 45.563,923.121 31.972,924.673 " />
<polygon stroke="black" stroke-width="1" fill="rgb(204, 204, 204)" fill-opacity="0.25" points="984.138,423.483 984.138,445.363 972.369,445.363 972.369,423.480 " />
<polygon stroke="black" stroke-width="1" fill="rgb(204, 204, 204)" fill-opacity="0.25" points="984.138,401.422 984.138,423.483 972.369,423.480 972.369,401.422 " />
<polygon stroke="black" stroke-width="1" fill="rgb(204, 204, 204)" fill-opacity="0.25" points="1006.994,401.422 1006.994,423.490 984.138,423.483 984.138,401.422 " />
<polygon stroke="black" stroke-width="1" fill="rgb(204, 204, 204)" fill-opacity="0.25" points="1006.994,423.490 1006.994,445.363 984.138,445.363 984.138,423.483 " />
<polygon stroke="black" stroke-width="1" fill="rgb(204, 204, 204)" fill-opacity="0.25" points="1016.310,423.492 1016.310,445.363 1006.994,445.363 1006.994,423.490 " />
<polygon stroke="black" stroke-width="1" fill="rgb(204, 204, 204)" fill-opacity="0.25" points="1016.310,401.422 1016.310,423.492 1006.994,423.490 1006.994,401.422 " />
<polygon stroke="black" stroke-width="1" fill="rgb(204, 204, 204)" fill-opacity="0.25" points="986.540,241.734 986.541,241.268 986.541,215.193 986.540,215.037 " />
<polygon stroke="black" stroke-width="1" fill="rgb(204, 204, 204)" fill-opacity="0.25" points="986.540,215.037 986.541,215.193 986.541,187.342 986.540,191.611 " />
<polygon stroke="black" stroke-width="1" fill="rgb(204, 204, 204)" fill-opacity="0.25" points="986.540,353.154 986.540,353.154 986.541,241.268 986.540,241.734 " />
<polygon stroke="black" stroke-width="1" fill="rgb(204, 204, 204)" fill-opacity="0.25" points="37.459,481.104 37.459,340.193 37.460,318.705 37.459,481.104 " />
<polygon stroke="black" stroke-width="1" fill="rgb(204, 204, 204)" fill-opacity="0.25" points="889.866,268.240 37.459,340.193 37.459,481.104 889.866,366.187 " />
<polygon stroke="black" stroke-width="1" fill="rgb(204, 204, 204)" fill-opacity="0.25" points="986.540,191.611 889.866,193.400 889.866,219.436 986.540,215.037 " />
<polygon stroke="black" stroke-width="1" fill="rgb(204, 204, 204)" fill-opacity="0.25" points="986.540,215.037 889.866,219.436 889.866,268.240 986.540,241.734 " />
<polygon stroke="black" stroke-width="1" fill="rgb(204, 204, 204)" fill-opacity="0.25" points="986.540,241.734 889.866,268.240 889.866,366.187 986.540,353.154 " />
<polygon stroke="black" stroke-width="1" fill="rgb(204, 204, 204)" fill-opacity="0.25" points="986.540,353.154 889.866,366.187 889.866,366.187 986.540,353.154 " />
<polygon stroke="black" stroke-width="1" fill="rgb(204, 204, 204)" fill-opacity="0.25" points="889.866,366.187 37.459,481.104 37.459,481.104 889.866,366.187 " />
<polygon stroke="black" stroke-width="1" fill="rgb(204, 204, 204)" fill-opacity="0.25" points="37.460,318.705 37.459,340.193 889.866,268.240 889.866,249.038 " />
<polygon stroke="black" stroke-width="1" fill="rgb(204, 204, 204)" fill-opacity="0.25" points="889.866,268.240 889.866,219.436 889.866,219.436 889.866,249.038 " />
<polygon stroke="black" stroke-width="1" fill="rgb(204, 204, 204)" fill-opacity="0.25" points="889.866,219.436 889.866,193.400 889.866,190.788 889.866,219.436 " />
<polygon stroke="black" stroke-width="1" fill="rgb(204, 204, 204)" fill-opacity="0.25" points="986.541,187.342 889.866,190.788 889.866,193.400 986.540,191.611 " />
<polygon stroke="black" stroke-width="1" fill="rgb(204, 204, 204)" fill-opacity="0.25" points="986.540,241.734 986.541,241.268 986.541,215.193 986.540,215.037 " />
<polygon stroke="black" stroke-width="1" fill="rgb(204, 204, 204)" fill-opacity="0.25" points="986.540,215.037 986.541,215.193 986.541,187.342 986.540,191.611 " />
<polygon stroke="black" stroke-width="1" fill="rgb(204, 204, 204)" fill-opacity="0.25" points="986.540,353.154 986.540,353.154 986.541,241.268 986.540,241.734 " />
<polygon stroke="black" stroke-width="1" fill="rgb(204, 204, 204)" fill-opacity="0.25" points="37.459,481.104 37.459,340.193 37.460,319.965 37.459,481.104 " />
<polygon stroke="black" stroke-width="1" fill="rgb(204, 204, 204)" fill-opacity="0.25" points="889.866,268.240 37.459,340.193 37.459,481.104 889.866,366.187 " />
<polygon stroke="black" stroke-width="1" fill="rgb(204, 204, 204)" fill-opacity="0.25" points="986.540,191.611 889.866,193.400 889.866,219.436 986.540,215.037 " />
<polygon stroke="black" stroke-width="1" fill="rgb(204, 204, 204)" fill-opacity="0.25" points="986.540,215.037 889.866,219.436 889.866,268.240 986.540,241.734 " />
<polygon stroke="black" stroke-width="1" fill="rgb(204, 204, 204)" fill-opacity="0.25" points="986.540,241.734 889.866,268.240 889.866,366.187 986.540,353.154 " />
<polygon stroke="black" stroke-width="1" fill="rgb(204, 204, 204)" fill-opacity="0.25" points="986.540,353.154 889.866,366.187 889.866,366.187 986.540,353.154 " />
<polygon stroke="black" stroke-width="1" fill="rgb(204, 204, 204)" fill-opacity="0.25" points="889.866,366.187 37.459,481.104 37.459,481.104 889.866,366.187 " />
<polygon stroke="black" stroke-width="1" fill="rgb(204, 204, 204)" fill-opacity="0.25" points="37.460,319.965 37.459,340.193 889.866,268.240 889.866,249.038 " />
<polygon stroke="black" stroke-width="1" fill="rgb(204, 204, 204)" fill-opacity="0.25" points="889.866,268.240 889.866,219.436 889.866,219.436 889.866,249.038 " />
<polygon stroke="black" stroke-width="1" fill="rgb(204, 204, 204)" fill-opacity="0.25" points="889.866,219.436 889.866,193.400 889.866,190.788 889.866,219.436 " />
<polygon stroke="black" stroke-width="1" fill="rgb(204, 204, 204)" fill-opacity="0.25" points="986.541,187.342 889.866,190.788 889.866,193.400 986.540,191.611 " />
<polygon stroke="black" stroke-width="1" fill="rgb(204, 204, 204)" fill-opacity="0.25" points="102.593,590.293 30.208,590.242 0.000,774.283 101.693,787.642 " />
<polygon stroke="black" stroke-width="1" fill="rgb(204, 204, 204)" fill-opacity="0.25" points="131.759,533.067 102.860,531.682 102.593,590.293 148.361,590.842 " />
<polygon stroke="black" stroke-width="1" fill="rgb(204, 204, 204)" fill-opacity="0.25" points="102.860,531.682 39.783,531.904 30.208,590.242 102.593,590.293 " />
<polygon stroke="black" stroke-width="1" fill="rgb(204, 204, 204)" fill-opacity="0.25" points="274.273,560.593 241.403,572.647 248.430,592.639 283.683,587.365 " />
<polygon stroke="black" stroke-width="1" fill="rgb(204, 204, 204)" fill-opacity="0.25" points="403.733,513.113 338.046,474.730 372.806,524.456 " />
<polygon stroke="black" stroke-width="1" fill="rgb(204, 204, 204)" fill-opacity="0.25" points="259.027,517.216 229.009,532.012 241.403,572.647 274.273,560.593 " />
<polygon stroke="black" stroke-width="1" fill="rgb(204, 204, 204)" fill-opacity="0.25" points="338.046,474.730 259.027,517.216 274.273,560.593 372.806,524.456 " />

</svg>
