<?xml version="1.0" encoding="UTF-8" standalone="no"?>
<!-- Created with Inkscape (http://www.inkscape.org/) -->

<svg
   width="31.999998"
   height="31.999998"
   viewBox="0 0 8.466666 8.4666661"
   version="1.1"
   id="svg5"
   inkscape:version="1.3 (0e150ed6c4, 2023-07-21)"
   sodipodi:docname="Icons.svg"
   xmlns:inkscape="http://www.inkscape.org/namespaces/inkscape"
   xmlns:sodipodi="http://sodipodi.sourceforge.net/DTD/sodipodi-0.dtd"
   xmlns="http://www.w3.org/2000/svg"
   xmlns:svg="http://www.w3.org/2000/svg">
  <sodipodi:namedview
     id="namedview7"
     pagecolor="#000000"
     bordercolor="#666666"
     borderopacity="1.0"
     inkscape:showpageshadow="2"
     inkscape:pageopacity="0"
     inkscape:pagecheckerboard="false"
     inkscape:deskcolor="#d1d1d1"
     inkscape:document-units="mm"
     showgrid="false"
     inkscape:zoom="3.2620827"
     inkscape:cx="813.59067"
     inkscape:cy="-25.597144"
     inkscape:window-width="2560"
     inkscape:window-height="1367"
     inkscape:window-x="0"
     inkscape:window-y="0"
     inkscape:window-maximized="1"
     inkscape:current-layer="layer1">
    <inkscape:page
       x="0"
       y="0"
       width="8.4666662"
       height="8.4666662"
       id="page427"
       inkscape:export-filename="down.png"
       inkscape:export-xdpi="48.000004"
       inkscape:export-ydpi="48.000004"
       margin="0"
       bleed="0" />
    <inkscape:page
       x="18.466665"
       y="0"
       width="8.4666662"
       height="8.4666662"
       id="page429"
       inkscape:export-filename="up.png"
       inkscape:export-xdpi="48.000011"
       inkscape:export-ydpi="48.000011"
       margin="0"
       bleed="0" />
    <inkscape:page
       x="36.933331"
       y="0"
       width="8.4666653"
       height="8.4666662"
       id="page431"
       inkscape:export-filename="plus.png"
       inkscape:export-xdpi="48.000023"
       inkscape:export-ydpi="48.000023"
       margin="0"
       bleed="0" />
    <inkscape:page
       x="55.399994"
       y="0"
       width="8.4666634"
       height="8.4666662"
       id="page433"
       inkscape:export-filename="minus.png"
       inkscape:export-xdpi="48"
       inkscape:export-ydpi="48"
       margin="0"
       bleed="0" />
    <inkscape:page
       x="73.866653"
       y="0"
       width="8.4666634"
       height="8.4666662"
       id="page435"
       inkscape:export-filename="bin.png"
       inkscape:export-xdpi="48.000046"
       inkscape:export-ydpi="48.000046"
       margin="0"
       bleed="0" />
    <inkscape:page
       x="92.333313"
       y="0"
       width="8.4666595"
       height="8.4666662"
       id="page437"
       inkscape:export-filename="./joystick.png"
       inkscape:export-xdpi="48.000046"
       inkscape:export-ydpi="48.000046"
       margin="0"
       bleed="0" />
    <inkscape:page
       x="110.79997"
       y="0"
       width="8.4666595"
       height="8.4666662"
       id="page439"
       inkscape:export-filename="./button.png"
       inkscape:export-xdpi="48.000046"
       inkscape:export-ydpi="48.000046"
       margin="0"
       bleed="0" />
    <inkscape:page
       x="129.26663"
       y="0"
       width="8.4666595"
       height="8.4666662"
       id="page1587"
       inkscape:export-filename="./keyboard.png"
       inkscape:export-xdpi="48.000046"
       inkscape:export-ydpi="48.000046"
       margin="0"
       bleed="0" />
    <inkscape:page
       x="147.73329"
       y="0"
       width="8.4666595"
       height="8.4666662"
       id="page1589"
       inkscape:export-filename="./cross.png"
       inkscape:export-xdpi="48.000004"
       inkscape:export-ydpi="48.000004"
       margin="0"
       bleed="0" />
    <inkscape:page
       x="166.19995"
       y="0"
       width="8.4666662"
       height="8.4666662"
       id="page1762"
       inkscape:export-filename="./tick.png"
       inkscape:export-xdpi="48.000004"
       inkscape:export-ydpi="48.000004"
       margin="0"
       bleed="0" />
    <inkscape:page
       x="184.66661"
       y="0"
       width="8.4666595"
       height="8.4666662"
       id="page1764"
       inkscape:export-filename="./pencil.png"
       inkscape:export-xdpi="48.000004"
       inkscape:export-ydpi="48.000004"
       margin="0"
       bleed="0" />
    <inkscape:page
       x="203.13327"
       y="0"
       width="8.4666595"
       height="8.4666662"
       id="page1766"
       inkscape:export-filename="./exclamation.png"
       inkscape:export-xdpi="48.000004"
       inkscape:export-ydpi="48.000004"
       margin="0"
       bleed="0" />
    <inkscape:page
       x="221.59993"
       y="0"
       width="8.4666662"
       height="8.4666662"
       id="page388"
       inkscape:export-filename="./resizable.png"
       inkscape:export-xdpi="48.000004"
       inkscape:export-ydpi="48.000004"
       margin="0"
       bleed="0" />
    <inkscape:page
       x="238.74707"
       y="-2.3499719e-16"
       width="8.4666662"
       height="8.4666662"
       id="page1"
       margin="0"
       bleed="0"
       inkscape:export-filename="reset.png"
       inkscape:export-xdpi="48.000004"
       inkscape:export-ydpi="48.000004" />
  </sodipodi:namedview>
  <defs
     id="defs2">
    <inkscape:path-effect
       effect="taper_stroke"
       id="path-effect1172"
       is_visible="true"
       lpeversion="1"
       stroke_width="0.83"
       attach_start="0.17945015"
       end_offset="0.42823128"
       start_smoothing="0.5"
       end_smoothing="0.5"
       jointype="round"
       start_shape="center"
       end_shape="right"
       miter_limit="100"
       subpath="1" />
    <inkscape:path-effect
       effect="powerstroke"
       id="path-effect1170"
       is_visible="true"
       lpeversion="1"
       offset_points="0.052410391,0.62233561 | 0.45093372,0.24538383 | 0.83547574,0.20012151"
       not_jump="false"
       sort_points="true"
       interpolator_type="CentripetalCatmullRom"
       interpolator_beta="0"
       start_linecap_type="round"
       linejoin_type="round"
       miter_limit="4"
       scale_width="1"
       end_linecap_type="round"
       message="&lt;b&gt;Ctrl + click&lt;/b&gt; on existing node and move it" />
    <rect
       x="537.97333"
       y="20.406454"
       width="56.633232"
       height="46.149048"
       id="rect1063" />
    <inkscape:path-effect
       effect="tiling"
       id="path-effect881"
       is_visible="true"
       lpeversion="1"
       unit="px"
       seed="1;1"
       lpesatellites=""
       num_rows="2"
       num_cols="6"
       gapx="2"
       gapy="2"
       offset="0"
       offset_type="false"
       scale="0"
       rotate="0"
       mirrorrowsx="false"
       mirrorrowsy="false"
       mirrorcolsx="false"
       mirrorcolsy="false"
       mirrortrans="false"
       shrink_interp="false"
       split_items="false"
       link_styles="false"
       interpolate_scalex="false"
       interpolate_scaley="true"
       interpolate_rotatex="false"
       interpolate_rotatey="true"
       random_scale="false"
       random_rotate="false"
       random_gap_y="false"
       random_gap_x="false"
       transformorigin="" />
    <inkscape:path-effect
       effect="bool_op"
       operand-path="#rect1593"
       id="path-effect1772"
       is_visible="true"
       lpeversion="1"
       operation="union"
       swap-operands="false"
       filltype-this="from-curve"
       filter=""
       filltype-operand="from-curve" />
    <filter
       id="selectable_hidder_filter"
       width="1.0130627"
       height="1.0433606"
       x="-0.0065313545"
       y="-0.021680277"
       style="color-interpolation-filters:sRGB"
       inkscape:label="LPE boolean visibility">
      <feComposite
         id="boolops_hidder_primitive"
         result="composite1"
         operator="arithmetic"
         in2="SourceGraphic"
         in="BackgroundImage"
         k1="0"
         k2="0"
         k3="0"
         k4="0" />
    </filter>
    <inkscape:path-effect
       effect="bool_op"
       operand-path="#rect1665"
       id="path-effect1732"
       is_visible="true"
       lpeversion="1"
       operation="diff"
       swap-operands="true"
       filltype-this="from-curve"
       filter=""
       filltype-operand="from-curve" />
    <linearGradient
       id="Main"
       inkscape:swatch="solid"
       gradientTransform="matrix(0,-1.074259e-4,1.9048997e-6,0,-169.66962,-728.57209)">
      <stop
         style="stop-color:#ffffff;stop-opacity:1;"
         offset="0"
         id="stop1172" />
    </linearGradient>
    <filter
       id="mask-powermask-path-effect1621_inverse"
       inkscape:label="filtermask-powermask-path-effect1621"
       style="color-interpolation-filters:sRGB"
       height="100"
       width="100"
       x="-50"
       y="-50">
      <feColorMatrix
         id="mask-powermask-path-effect1621_primitive1"
         values="1"
         type="saturate"
         result="fbSourceGraphic" />
      <feColorMatrix
         id="mask-powermask-path-effect1621_primitive2"
         values="-1 0 0 0 1 0 -1 0 0 1 0 0 -1 0 1 0 0 0 1 0 "
         in="fbSourceGraphic" />
    </filter>
    <filter
       id="mask-powermask-path-effect1631_inverse"
       inkscape:label="filtermask-powermask-path-effect1631"
       style="color-interpolation-filters:sRGB"
       height="100"
       width="100"
       x="-50"
       y="-50">
      <feColorMatrix
         id="mask-powermask-path-effect1631_primitive1"
         values="1"
         type="saturate"
         result="fbSourceGraphic" />
      <feColorMatrix
         id="mask-powermask-path-effect1631_primitive2"
         values="-1 0 0 0 1 0 -1 0 0 1 0 0 -1 0 1 0 0 0 1 0 "
         in="fbSourceGraphic" />
    </filter>
    <inkscape:path-effect
       effect="tiling"
       id="path-effect881-6"
       is_visible="true"
       lpeversion="1"
       unit="px"
       seed="1;1"
       lpesatellites=""
       num_rows="2"
       num_cols="6"
       gapx="2"
       gapy="2"
       offset="0"
       offset_type="false"
       scale="0"
       rotate="0"
       mirrorrowsx="false"
       mirrorrowsy="false"
       mirrorcolsx="false"
       mirrorcolsy="false"
       mirrortrans="false"
       shrink_interp="false"
       split_items="false"
       link_styles="false"
       interpolate_scalex="false"
       interpolate_scaley="true"
       interpolate_rotatex="false"
       interpolate_rotatey="true"
       random_scale="false"
       random_rotate="false"
       random_gap_y="false"
       random_gap_x="false"
       transformorigin="" />
    <inkscape:path-effect
       effect="tiling"
       id="path-effect881-0"
       is_visible="true"
       lpeversion="1"
       unit="px"
       seed="1;1"
       lpesatellites=""
       num_rows="2"
       num_cols="6"
       gapx="2"
       gapy="2"
       offset="0"
       offset_type="false"
       scale="0"
       rotate="0"
       mirrorrowsx="false"
       mirrorrowsy="false"
       mirrorcolsx="false"
       mirrorcolsy="false"
       mirrortrans="false"
       shrink_interp="false"
       split_items="false"
       link_styles="false"
       interpolate_scalex="false"
       interpolate_scaley="true"
       interpolate_rotatex="false"
       interpolate_rotatey="true"
       random_scale="false"
       random_rotate="false"
       random_gap_y="false"
       random_gap_x="false"
       transformorigin="" />
  </defs>
  <g
     inkscape:label="Layer 1"
     inkscape:groupmode="layer"
     id="layer1"
     transform="translate(-10.175485,0.12719378)">
    <path
       style="fill:none;stroke:url(#Main);stroke-width:1;stroke-linecap:round;stroke-linejoin:round;stroke-dasharray:none;stroke-opacity:1"
       d="m 11.475478,2.8762807 2.933341,2.4787805 2.93334,-2.4787803"
       id="path506" />
    <path
       style="fill:none;stroke:url(#Main);stroke-width:1;stroke-linecap:round;stroke-linejoin:round;stroke-dasharray:none;stroke-opacity:1"
       d="M 35.808824,5.3649163 32.875483,2.8861357 29.942143,5.3649161"
       id="path1170" />
    <path
       style="fill:url(#Main);stroke:url(#Main);stroke-width:0.999999;stroke-linecap:round;stroke-linejoin:round;stroke-dasharray:none;stroke-opacity:1"
       d="M 51.342148,0.81717174 V 7.395107"
       id="path1280"
       sodipodi:nodetypes="cc" />
    <path
       style="fill:url(#Main);stroke:url(#Main);stroke-width:0.999999;stroke-linecap:round;stroke-linejoin:round;stroke-dasharray:none;stroke-opacity:1"
       d="m 48.05318,4.1061392 h 6.577934"
       id="path1282" />
    <path
       style="fill:url(#Main);stroke:url(#Main);stroke-width:0.999999;stroke-linecap:round;stroke-linejoin:round;stroke-dasharray:none;stroke-opacity:1"
       d="m 164.46776,1.780492 -4.6513,4.6513025"
       id="path1280-6"
       sodipodi:nodetypes="cc" />
    <path
       style="fill:url(#Main);stroke:url(#Main);stroke-width:0.999999;stroke-linecap:round;stroke-linejoin:round;stroke-dasharray:none;stroke-opacity:1"
       d="m 159.81646,1.78049 4.65129,4.6512989"
       id="path1282-2" />
    <path
       style="fill:none;stroke:url(#Main);stroke-width:0.999999;stroke-linecap:round;stroke-linejoin:round;stroke-dasharray:none;stroke-opacity:1"
       d="M 183.86353,2.0142148 179.8087,6.8174944 177.68951,4.6524421"
       id="path1280-6-1"
       sodipodi:nodetypes="ccc" />
    <path
       style="fill:url(#Main);stroke:url(#Main);stroke-width:0.999999;stroke-linecap:round;stroke-linejoin:round;stroke-dasharray:none;stroke-opacity:1"
       d="m 66.490764,4.1061392 h 6.577934"
       id="path1286" />
    <path
       id="path1288"
       style="fill:url(#Main);stroke:url(#Main);stroke-width:0;stroke-linecap:round;stroke-linejoin:miter;stroke-dasharray:none;stroke-opacity:1"
       d="m 88.275611,2.5634964 -2.964041,0.030301 0.791868,5.4899119 h 2.172173 2.172174 l 0.791383,-5.4899119 z" />
    <rect
       style="fill:url(#Main);stroke:url(#Main);stroke-width:0.0999996;stroke-linecap:round;stroke-linejoin:round;stroke-dasharray:none"
       id="rect1342"
       width="6.8131323"
       height="0.96985143"
       x="84.868904"
       y="1.0228478"
       ry="0.29634413"
       class="UnoptimicedTransforms" />
    <rect
       style="fill:url(#Main);stroke:url(#Main);stroke-width:0.0999999;stroke-linecap:round;stroke-linejoin:round;stroke-dasharray:none"
       id="rect1348"
       width="4.078474"
       height="0.71546382"
       x="86.236237"
       y="0.52018088"
       ry="0.21861441" />
    <rect
       style="fill:url(#Main);stroke:url(#Main);stroke-width:0.0999996;stroke-linecap:round;stroke-linejoin:round;stroke-dasharray:none"
       id="rect1521"
       width="6.8131323"
       height="0.96985143"
       x="103.33556"
       y="6.8626752"
       ry="0.29634413" />
    <rect
       style="fill:url(#Main);stroke:url(#Main);stroke-width:0.0999999;stroke-linecap:round;stroke-linejoin:round;stroke-dasharray:none"
       id="rect1523"
       width="5.3924365"
       height="1.2994475"
       x="104.04593"
       y="6.2302327"
       ry="0.39705428" />
    <path
       style="fill:none;stroke:url(#Main);stroke-width:1;stroke-linecap:butt;stroke-linejoin:miter;stroke-dasharray:none;stroke-opacity:1"
       d="M 106.74213,6.862675 V 2.5634959"
       id="path1525" />
    <circle
       style="fill:url(#Main);stroke:url(#Main);stroke-width:0;stroke-linecap:round;stroke-linejoin:round;stroke-dasharray:none"
       id="path1581"
       cx="106.74213"
       cy="2.5634959"
       r="1.4336878" />
    <rect
       style="fill:url(#Main);stroke:url(#Main);stroke-width:0.0999996;stroke-linecap:round;stroke-linejoin:round;stroke-dasharray:none"
       id="rect1583"
       width="7.7422471"
       height="0.96985143"
       x="121.33765"
       y="5.7370605"
       ry="0.29634413" />
    <rect
       style="fill:url(#Main);stroke:url(#Main);stroke-width:0.0999999;stroke-linecap:round;stroke-linejoin:round;stroke-dasharray:none"
       id="rect1585"
       width="5.3924365"
       height="1.2994475"
       x="122.51257"
       y="4.0462847"
       ry="0.39705428" />
    <path
       id="rect1585-6"
       style="fill:url(#Main);stroke:url(#Main);stroke-width:0.0999998;stroke-linecap:round;stroke-linejoin:round;stroke-dasharray:none"
       d="m 140.37012,2.5517125 c -0.32037,0 -0.57826,0.2578837 -0.57826,0.5782592 v 3.4158122 c 0,0.3203755 0.25789,0.5782593 0.57826,0.5782593 h 6.61045 c 0.32038,0 0.57826,-0.2578838 0.57826,-0.5782593 V 3.1299717 c 0,-0.3203755 -0.25788,-0.5782592 -0.57826,-0.5782592 z m 0.14366,0.5653401 h 0.33177 c 0.12045,0 0.21704,0.1015723 0.21704,0.2227255 V 3.804866 c 0,0.121153 -0.0971,0.2206583 -0.21704,0.2206583 h -0.33177 c -0.11992,0 -0.21911,-0.099002 -0.21911,-0.2206583 V 3.3397781 c 0,-0.1216515 0.0987,-0.2227255 0.21911,-0.2227255 z m 1.20716,0 h 0.33177 c 0.12045,0 0.21859,0.1010715 0.21859,0.2227255 V 3.804866 c 0,0.1216512 -0.0986,0.2206583 -0.21859,0.2206583 h -0.33177 c -0.11993,0 -0.21704,-0.099505 -0.21704,-0.2206583 V 3.3397781 c 0,-0.1211507 0.0966,-0.2227255 0.21704,-0.2227255 z m 1.20665,0 h 0.33435 c 0.12044,0 0.21652,0.1015723 0.21652,0.2227255 V 3.804866 c 0,0.1211504 -0.0966,0.2206583 -0.21652,0.2206583 h -0.33435 c -0.11993,0 -0.21653,-0.099505 -0.21653,-0.2206583 V 3.3397781 c 0,-0.1211507 0.0961,-0.2227255 0.21653,-0.2227255 z m 1.20923,0 h 0.33176 c 0.12044,0 0.21704,0.1015698 0.21704,0.2227255 V 3.804866 c 0,0.1211504 -0.0971,0.2206583 -0.21704,0.2206583 h -0.33176 c -0.11993,0 -0.21859,-0.099002 -0.21859,-0.2206583 V 3.3397781 c 0,-0.1216515 0.0981,-0.2227255 0.21859,-0.2227255 z m 1.20716,0 h 0.33176 c 0.12044,0 0.21859,0.101069 0.21859,0.2227255 V 3.804866 c 0,0.1216512 -0.0986,0.2206583 -0.21859,0.2206583 h -0.33176 c -0.11993,0 -0.21704,-0.099503 -0.21704,-0.2206583 V 3.3397781 c 0,-0.1211507 0.0966,-0.2227255 0.21704,-0.2227255 z m 1.20664,0 h 0.33435 c 0.12043,0 0.21652,0.1015698 0.21652,0.2227255 V 3.804866 c 0,0.1211504 -0.0966,0.2206583 -0.21652,0.2206583 h -0.33435 c -0.11994,0 -0.21652,-0.099508 -0.21652,-0.2206583 V 3.3397781 c 0,-0.1211507 0.0961,-0.2227255 0.21652,-0.2227255 z m -6.03684,1.359607 h 0.33177 c 0.11994,0 0.21704,0.099505 0.21704,0.2206583 v 0.4645712 c 0,0.1211523 -0.0966,0.2227254 -0.21704,0.2227254 h -0.33177 c -0.12043,0 -0.21911,-0.1010691 -0.21911,-0.2227254 V 4.6973179 c 0,-0.1216512 0.0992,-0.2206583 0.21911,-0.2206583 z m 1.20716,0 h 0.33177 c 0.11994,0 0.21859,0.099005 0.21859,0.2206583 v 0.4645712 c 0,0.1216506 -0.0981,0.2227254 -0.21859,0.2227254 h -0.33177 c -0.12044,0 -0.21704,-0.1015724 -0.21704,-0.2227254 V 4.6973179 c 0,-0.1211504 0.0971,-0.2206583 0.21704,-0.2206583 z m 1.20665,0 h 0.33435 c 0.11993,0 0.21652,0.099505 0.21652,0.2206583 v 0.4645712 c 0,0.1211498 -0.0961,0.2227254 -0.21652,0.2227254 h -0.33435 c -0.12044,0 -0.21653,-0.1015724 -0.21653,-0.2227254 V 4.6973179 c 0,-0.1211504 0.0966,-0.2206583 0.21653,-0.2206583 z m 1.20923,0 h 0.33176 c 0.11993,0 0.21704,0.099503 0.21704,0.2206583 v 0.4645712 c 0,0.1211498 -0.0966,0.2227254 -0.21704,0.2227254 h -0.33176 c -0.12044,0 -0.21859,-0.1010691 -0.21859,-0.2227254 V 4.6973179 c 0,-0.1216512 0.0986,-0.2206583 0.21859,-0.2206583 z m 1.20716,0 h 0.33176 c 0.11993,0 0.21859,0.099002 0.21859,0.2206583 v 0.4645712 c 0,0.1216506 -0.0981,0.2227254 -0.21859,0.2227254 h -0.33176 c -0.12044,0 -0.21704,-0.1015699 -0.21704,-0.2227254 V 4.6973179 c 0,-0.1211504 0.0971,-0.2206583 0.21704,-0.2206583 z m 1.20664,0 h 0.33435 c 0.11992,0 0.21652,0.099503 0.21652,0.2206583 v 0.4645712 c 0,0.1211498 -0.0961,0.2227254 -0.21652,0.2227254 h -0.33435 c -0.12045,0 -0.21652,-0.101575 -0.21652,-0.2227254 V 4.6973179 c 0,-0.1211504 0.0966,-0.2206583 0.21652,-0.2206583 z m -5.52524,1.2774414 h 5.46892 c 0.14176,0 0.25579,0.1164877 0.25579,0.2578654 v 0.532784 c 0,0.1413714 -0.114,0.2578654 -0.25579,0.2578654 h -5.46892 c -0.14178,0 -0.25787,-0.1160758 -0.25787,-0.2578654 v -0.532784 c 0,-0.1417876 0.11608,-0.2578654 0.25787,-0.2578654 z" />
    <rect
       style="fill:url(#Main);stroke:url(#Main);stroke-width:0.0999998;stroke-linecap:round;stroke-linejoin:round;stroke-dasharray:none"
       id="rect1585-6-9"
       width="7.7668324"
       height="4.5725908"
       x="139.79204"
       y="10.278625"
       ry="0.57829571" />
    <rect
       style="fill:#000000;stroke:none;stroke-width:0;stroke-linecap:round;stroke-linejoin:round;stroke-dasharray:none"
       id="rect1879-3"
       width="5.9053793"
       height="0.96925324"
       x="140.80649"
       y="13.520503"
       ry="0.21822982" />
    <path
       style="fill:#000000;stroke:none;stroke-width:0;stroke-linecap:round;stroke-linejoin:round;stroke-dasharray:none"
       id="rect325-6"
       width="0.70466655"
       height="0.82951939"
       x="140.4678"
       y="3.1365287"
       ry="0.18232588"
       d="m 140.65013,3.1365287 h 0.34001 c 0.10101,0 0.18233,0.081317 0.18233,0.1823259 v 0.4648676 c 0,0.1010086 -0.0813,0.1823259 -0.18233,0.1823259 h -0.34001 c -0.10101,0 -0.18233,-0.081317 -0.18233,-0.1823259 V 3.3188546 c 0,-0.1010085 0.0813,-0.1823259 0.18233,-0.1823259 z m 1.23383,0 h 0.34002 c 0.10101,0 0.18232,0.081317 0.18232,0.1823259 v 0.4648676 c 0,0.1010086 -0.0813,0.1823259 -0.18232,0.1823259 h -0.34002 c -0.10101,0 -0.18232,-0.081317 -0.18232,-0.1823259 V 3.3188546 c 0,-0.1010085 0.0813,-0.1823259 0.18232,-0.1823259 z m 1.23384,0 h 0.34001 c 0.10101,0 0.18233,0.081317 0.18233,0.1823259 v 0.4648676 c 0,0.1010086 -0.0813,0.1823259 -0.18233,0.1823259 h -0.34001 c -0.10101,0 -0.18233,-0.081317 -0.18233,-0.1823259 V 3.3188546 c 0,-0.1010085 0.0813,-0.1823259 0.18233,-0.1823259 z m 1.23383,0 h 0.34001 c 0.10101,0 0.18233,0.081317 0.18233,0.1823259 v 0.4648676 c 0,0.1010086 -0.0813,0.1823259 -0.18233,0.1823259 h -0.34001 c -0.10101,0 -0.18233,-0.081317 -0.18233,-0.1823259 V 3.3188546 c 0,-0.1010085 0.0813,-0.1823259 0.18233,-0.1823259 z m 1.23383,0 h 0.34002 c 0.10101,0 0.18232,0.081317 0.18232,0.1823259 v 0.4648676 c 0,0.1010086 -0.0813,0.1823259 -0.18232,0.1823259 h -0.34002 c -0.10101,0 -0.18232,-0.081317 -0.18232,-0.1823259 V 3.3188546 c 0,-0.1010085 0.0813,-0.1823259 0.18232,-0.1823259 z m 1.23384,0 h 0.34001 c 0.10101,0 0.18233,0.081317 0.18233,0.1823259 v 0.4648676 c 0,0.1010086 -0.0813,0.1823259 -0.18233,0.1823259 h -0.34001 c -0.10101,0 -0.18233,-0.081317 -0.18233,-0.1823259 V 3.3188546 c 0,-0.1010085 0.0813,-0.1823259 0.18233,-0.1823259 z m -6.16917,1.3586861 h 0.34001 c 0.10101,0 0.18233,0.081317 0.18233,0.1823259 v 0.4648676 c 0,0.1010085 -0.0813,0.1823259 -0.18233,0.1823259 h -0.34001 c -0.10101,0 -0.18233,-0.081317 -0.18233,-0.1823259 V 4.6775407 c 0,-0.1010086 0.0813,-0.1823259 0.18233,-0.1823259 z m 1.23383,0 h 0.34002 c 0.10101,0 0.18232,0.081317 0.18232,0.1823259 v 0.4648676 c 0,0.1010085 -0.0813,0.1823259 -0.18232,0.1823259 h -0.34002 c -0.10101,0 -0.18232,-0.081317 -0.18232,-0.1823259 V 4.6775407 c 0,-0.1010086 0.0813,-0.1823259 0.18232,-0.1823259 z m 1.23384,0 h 0.34001 c 0.10101,0 0.18233,0.081317 0.18233,0.1823259 v 0.4648676 c 0,0.1010085 -0.0813,0.1823259 -0.18233,0.1823259 h -0.34001 c -0.10101,0 -0.18233,-0.081317 -0.18233,-0.1823259 V 4.6775407 c 0,-0.1010086 0.0813,-0.1823259 0.18233,-0.1823259 z m 1.23383,0 h 0.34001 c 0.10101,0 0.18233,0.081317 0.18233,0.1823259 v 0.4648676 c 0,0.1010085 -0.0813,0.1823259 -0.18233,0.1823259 h -0.34001 c -0.10101,0 -0.18233,-0.081317 -0.18233,-0.1823259 V 4.6775407 c 0,-0.1010086 0.0813,-0.1823259 0.18233,-0.1823259 z m 1.23383,0 h 0.34002 c 0.10101,0 0.18232,0.081317 0.18232,0.1823259 v 0.4648676 c 0,0.1010085 -0.0813,0.1823259 -0.18232,0.1823259 h -0.34002 c -0.10101,0 -0.18232,-0.081317 -0.18232,-0.1823259 V 4.6775407 c 0,-0.1010086 0.0813,-0.1823259 0.18232,-0.1823259 z m 1.23384,0 h 0.34001 c 0.10101,0 0.18233,0.081317 0.18233,0.1823259 v 0.4648676 c 0,0.1010085 -0.0813,0.1823259 -0.18233,0.1823259 h -0.34001 c -0.10101,0 -0.18233,-0.081317 -0.18233,-0.1823259 V 4.6775407 c 0,-0.1010086 0.0813,-0.1823259 0.18233,-0.1823259 z"
       sodipodi:type="rect"
       transform="matrix(0.9787608,0,0,1,2.8500476,7.747242)"
       inkscape:path-effect="#path-effect881-0"
       class="UnoptimicedTransforms" />
    <rect
       style="fill:url(#Main);stroke:url(#Main);stroke-width:0;stroke-linecap:round;stroke-linejoin:round;stroke-dasharray:none"
       id="rect1961"
       width="2.0646162"
       height="1.2864337"
       x="142.68289"
       y="-142.21698"
       ry="0.36807185"
       transform="rotate(44.999999)" />
    <rect
       style="fill:url(#Main);stroke:url(#Main);stroke-width:0;stroke-linecap:round;stroke-linejoin:round;stroke-dasharray:none"
       id="rect1963"
       width="2.0646155"
       height="4.3525076"
       x="142.68289"
       y="-140.30458"
       transform="rotate(44.999999)" />
    <path
       style="fill:url(#Main);stroke:url(#Main);stroke-width:0.265;stroke-linecap:round;stroke-linejoin:round;stroke-dasharray:none;stroke-opacity:1"
       d="m 196.59066,5.4515419 -0.73798,1.939804 1.9398,-0.7379781 -1.20182,-1.2018259"
       id="path1969" />
    <rect
       style="fill:url(#Main);stroke:url(#Main);stroke-width:0;stroke-linecap:round;stroke-linejoin:round;stroke-dasharray:none"
       id="rect1971"
       width="2.0646155"
       height="0.64321685"
       x="142.68289"
       y="-141.57376"
       transform="rotate(44.999999)" />
    <circle
       style="fill:url(#Main);stroke-width:0.264999;stroke-linecap:round;stroke-linejoin:round"
       id="path451"
       cx="217.54208"
       cy="6.9344659"
       r="0.67165959" />
    <circle
       style="fill:url(#Main);stroke:none;stroke-width:2;stroke-linecap:round;stroke-linejoin:round;stroke-dasharray:none"
       id="path1184"
       cx="217.54208"
       cy="5.0394311"
       r="0.5765782" />
    <circle
       style="fill:url(#Main);stroke:none;stroke-width:2;stroke-linecap:round;stroke-linejoin:round;stroke-dasharray:none"
       id="path1184-6"
       cx="217.5421"
       cy="1.1056583"
       r="1.0001502" />
    <path
       style="fill:url(#Main);stroke:none;stroke-width:0.264583px;stroke-linecap:butt;stroke-linejoin:miter;stroke-opacity:1"
       d="m 216.9655,5.1850547 -0.42355,-3.8563472 h 2.0003 l -0.43649,3.8950599 z"
       id="path1230"
       sodipodi:nodetypes="ccccc" />
    <rect
       style="fill:url(#Main);stroke:none;stroke-width:2;stroke-linecap:round;stroke-linejoin:round"
       id="rect541"
       width="6.7504659"
       height="0.98363924"
       x="160.7079"
       y="171.10847"
       ry="0.35768521"
       transform="rotate(-45)" />
    <rect
       style="fill:url(#Main);stroke:none;stroke-width:2;stroke-linecap:round;stroke-linejoin:round"
       id="rect1367"
       width="3.2465708"
       height="0.98363924"
       x="162.45985"
       y="173.01451"
       ry="0.35768521"
       transform="rotate(-45)" />
    <rect
       style="fill:url(#Main);stroke:none;stroke-width:2.00001;stroke-linecap:round;stroke-linejoin:round"
       id="rect1371"
       width="10.254363"
       height="0.98363924"
       x="158.98178"
       y="169.13875"
       ry="0.35768521"
       transform="rotate(-45)" />
    <path
       id="path1"
       style="fill:none;stroke:#ffffff;stroke-width:1;stroke-linecap:round;stroke-linejoin:round;stroke-dasharray:none"
       d="m 250.1699,4.7202324 c 0.10357,1.4406287 1.21884,2.6030337 2.65395,2.7661257 1.64682,0.183458 3.13059,-1.002744 3.3142,-2.6495467 0.18346,-1.646821 -1.00275,-3.130586 -2.64955,-3.314198 -0.32193,-0.03397 -0.73901,0.00733 -1.37625,0.2837601"
       sodipodi:nodetypes="ccccc" />
    <path
       id="path2"
       style="fill:#ffffff;stroke:#ffffff;stroke-width:1;stroke-linecap:round;stroke-linejoin:round;stroke-dasharray:none;stroke-opacity:1"
       d="m 250.22705,2.430224 1.85986,0.5973293 -0.25643,-1.0060344 -0.25625,-1.0052678 z"
       inkscape:transform-center-x="0.12500751"
       inkscape:transform-center-y="0.84661691" />
  </g>
</svg>
