<?xml version="1.0" encoding="UTF-8" standalone="no"?>
<!-- Created with Inkscape (http://www.inkscape.org/) -->

<svg
   width="160mm"
   height="160mm"
   viewBox="0 0 160 160"
   version="1.1"
   id="svg5"
   xml:space="preserve"
   inkscape:version="1.2.2 (b0a8486541, 2022-12-01)"
   sodipodi:docname="LeavesBase.svg"
   inkscape:export-filename="BigLeafGroup1.png"
   inkscape:export-xdpi="203.2"
   inkscape:export-ydpi="203.2"
   xmlns:inkscape="http://www.inkscape.org/namespaces/inkscape"
   xmlns:sodipodi="http://sodipodi.sourceforge.net/DTD/sodipodi-0.dtd"
   xmlns:xlink="http://www.w3.org/1999/xlink"
   xmlns="http://www.w3.org/2000/svg"
   xmlns:svg="http://www.w3.org/2000/svg"><sodipodi:namedview
     id="namedview7"
     pagecolor="#ffffff"
     bordercolor="#666666"
     borderopacity="1.0"
     inkscape:showpageshadow="2"
     inkscape:pageopacity="0.0"
     inkscape:pagecheckerboard="0"
     inkscape:deskcolor="#d1d1d1"
     inkscape:document-units="mm"
     showgrid="false"
     inkscape:zoom="1.2938725"
     inkscape:cx="320.35615"
     inkscape:cy="381.02673"
     inkscape:window-width="2560"
     inkscape:window-height="1365"
     inkscape:window-x="0"
     inkscape:window-y="0"
     inkscape:window-maximized="1"
     inkscape:current-layer="layer1" /><defs
     id="defs2" /><g
     inkscape:label="Layer 1"
     inkscape:groupmode="layer"
     id="layer1"
     transform="translate(-8.2310891,-68.015769)"><image
       width="45.949528"
       height="17.890255"
       preserveAspectRatio="none"
       xlink:href="Leaf4.png"
       id="image364"
       x="-25.437851"
       y="151.64281"
       transform="matrix(0.87266827,-0.48831352,0.26930546,0.96305481,0,0)" /><image
       width="46.393578"
       height="17.039099"
       preserveAspectRatio="none"
       xlink:href="Leaf1.png"
       id="image271"
       x="140.74358"
       y="116.01395"
       transform="matrix(0.8472503,0.53119387,-0.62998224,0.77660954,0,0)" /><image
       width="37.056946"
       height="14.024059"
       preserveAspectRatio="none"
       xlink:href="Leaf3.png"
       id="image319"
       x="34.134441"
       y="155.84811"
       transform="rotate(-3.5016118)" /><image
       width="43.121941"
       height="13.098086"
       preserveAspectRatio="none"
       xlink:href="Leaf4.png"
       id="image365"
       x="97.151154"
       y="-144.2901"
       transform="matrix(0.92989082,0.36783565,0.36783565,-0.92989082,0,0)" /><image
       width="50.845543"
       height="17.536627"
       preserveAspectRatio="none"
       xlink:href="Leaf2.png"
       id="image359"
       x="-17.873819"
       y="-198.87427"
       transform="matrix(0.98156825,-0.19111195,-0.29001886,-0.95702093,0,0)" /><image
       width="32.671043"
       height="10.013938"
       preserveAspectRatio="none"
       xlink:href="Leaf3.png"
       id="image361"
       x="52.637695"
       y="-152.07555"
       transform="matrix(0.99877819,0.04941791,0.07546016,-0.99714882,0,0)" /><image
       width="42.668694"
       height="11.824714"
       preserveAspectRatio="none"
       xlink:href="Leaf4.png"
       id="image242"
       x="33.299019"
       y="168.46478" /><image
       width="37.056946"
       height="14.024059"
       preserveAspectRatio="none"
       xlink:href="Leaf3.png"
       id="image244"
       x="27.20764"
       y="177.45741"
       transform="rotate(-3.5016118)" /><image
       width="43.121941"
       height="13.098086"
       preserveAspectRatio="none"
       xlink:href="Leaf4.png"
       id="image246"
       x="100.03875"
       y="-166.79797"
       transform="matrix(0.92989082,0.36783565,0.36783565,-0.92989082,0,0)" /><image
       width="50.845543"
       height="17.536627"
       preserveAspectRatio="none"
       xlink:href="Leaf2.png"
       id="image248"
       x="-29.666767"
       y="-219.49895"
       transform="matrix(0.98156825,-0.19111195,-0.29001886,-0.95702093,0,0)" /><image
       width="32.671043"
       height="10.013938"
       preserveAspectRatio="none"
       xlink:href="Leaf3.png"
       id="image252"
       x="42.327007"
       y="-179.17297"
       transform="matrix(0.99877819,0.04941791,0.07546016,-0.99714882,0,0)" /><image
       width="42.668694"
       height="11.824714"
       preserveAspectRatio="none"
       xlink:href="Leaf4.png"
       id="image310"
       x="28.496029"
       y="118.97985" /><image
       width="37.056946"
       height="14.024059"
       preserveAspectRatio="none"
       xlink:href="Leaf3.png"
       id="image312"
       x="25.435991"
       y="127.77145"
       transform="rotate(-3.5016118)" /><image
       width="50.845543"
       height="17.536627"
       preserveAspectRatio="none"
       xlink:href="Leaf2.png"
       id="image316"
       x="10.911236"
       y="-200.95461"
       transform="matrix(0.98156825,-0.19111195,-0.29001886,-0.95702093,0,0)" /><image
       width="32.671043"
       height="10.013938"
       preserveAspectRatio="none"
       xlink:href="Leaf3.png"
       id="image320"
       x="40.191463"
       y="-125.12082"
       transform="matrix(0.99877819,0.04941791,0.07546016,-0.99714882,0,0)" /><image
       width="46.393578"
       height="17.039099"
       preserveAspectRatio="none"
       xlink:href="Leaf1.png"
       id="image322"
       x="123.17859"
       y="63.204025"
       transform="matrix(0.8472503,0.53119387,-0.62998224,0.77660954,0,0)" /><image
       width="42.668694"
       height="11.824714"
       preserveAspectRatio="none"
       xlink:href="Leaf4.png"
       id="image324"
       x="66.390221"
       y="137.73079" /><image
       width="43.121941"
       height="13.098086"
       preserveAspectRatio="none"
       xlink:href="Leaf4.png"
       id="image328"
       x="99.722908"
       y="-146.08206"
       transform="matrix(0.9749639,0.22236321,0.22236321,-0.9749639,0,0)" /><image
       width="32.671043"
       height="10.013938"
       preserveAspectRatio="none"
       xlink:href="Leaf3.png"
       id="image334"
       x="92.927315"
       y="-134.09955"
       transform="matrix(0.99877819,0.04941791,0.07546016,-0.99714882,0,0)" /><image
       width="42.668694"
       height="16.727011"
       preserveAspectRatio="none"
       xlink:href="Leaf4.png"
       id="image338"
       x="56.770382"
       y="-223.42384"
       transform="scale(1,-1)" /><image
       width="37.126072"
       height="19.819643"
       preserveAspectRatio="none"
       xlink:href="Leaf3.png"
       id="image340"
       x="70.702728"
       y="-207.61925"
       transform="matrix(0.99627466,0.08623694,0.04321683,-0.99906572,0,0)" /><image
       width="45.949528"
       height="17.890255"
       preserveAspectRatio="none"
       xlink:href="Leaf4.png"
       id="image342"
       x="-29.094563"
       y="201.33549"
       transform="matrix(0.87266827,-0.48831352,0.26930546,0.96305481,0,0)" /><image
       width="51.766697"
       height="24.279457"
       preserveAspectRatio="none"
       xlink:href="Leaf2.png"
       id="image344"
       x="73.423363"
       y="86.552277"
       transform="matrix(0.96410186,0.26553267,-0.20947553,0.97781389,0,0)" /><image
       width="32.710957"
       height="14.145332"
       preserveAspectRatio="none"
       xlink:href="Leaf3.png"
       id="image348"
       x="47.549019"
       y="216.06044"
       transform="matrix(0.99755958,-0.06982033,0.05342069,0.9985721,0,0)" /><image
       width="42.443676"
       height="15.557951"
       preserveAspectRatio="none"
       xlink:href="Leaf1.png"
       id="image366"
       x="26.011333"
       y="175.85518" /><image
       width="48.471626"
       height="18.632471"
       preserveAspectRatio="none"
       xlink:href="Leaf1.png"
       id="image370"
       x="-29.116041"
       y="-133.29384"
       transform="matrix(0.81092746,-0.5851467,-0.57610875,-0.81737305,0,0)" /><image
       width="48.471626"
       height="18.632471"
       preserveAspectRatio="none"
       xlink:href="Leaf1.png"
       id="image384"
       x="-3.57796"
       y="-121.81188"
       transform="matrix(0.81092746,-0.5851467,-0.57610875,-0.81737305,0,0)" /><image
       width="42.668694"
       height="13.609183"
       preserveAspectRatio="none"
       xlink:href="Leaf4.png"
       id="image386"
       x="40.321476"
       y="-121.83875"
       transform="scale(1,-1)" /><image
       width="37.079372"
       height="16.133053"
       preserveAspectRatio="none"
       xlink:href="Leaf3.png"
       id="image388"
       x="27.714613"
       y="-117.65939"
       transform="matrix(0.99752933,0.07025118,0.05309237,-0.99858961,0,0)" /><image
       width="44.058693"
       height="14.822703"
       preserveAspectRatio="none"
       xlink:href="Leaf4.png"
       id="image390"
       x="5.7843132"
       y="102.84609"
       transform="matrix(0.91011997,-0.41434484,0.32503808,0.94570093,0,0)" /><image
       width="51.146053"
       height="19.973997"
       preserveAspectRatio="none"
       xlink:href="Leaf2.png"
       id="image392"
       x="57.846344"
       y="58.00695"
       transform="matrix(0.97580103,0.21866035,-0.25462868,0.9670389,0,0)" /><image
       width="48.471626"
       height="18.632471"
       preserveAspectRatio="none"
       xlink:href="Leaf1.png"
       id="image398"
       x="-31.702898"
       y="-223.84813"
       transform="matrix(0.81092746,-0.5851467,-0.57610875,-0.81737305,0,0)" /><image
       width="42.443676"
       height="18.705795"
       preserveAspectRatio="none"
       xlink:href="Leaf1.png"
       id="image408"
       x="18.992977"
       y="-170.55937"
       transform="scale(1,-1)" /><image
       width="32.68399"
       height="11.517099"
       preserveAspectRatio="none"
       xlink:href="Leaf3.png"
       id="image410"
       x="26.498922"
       y="171.72502"
       transform="matrix(0.99838256,-0.05685305,0.06561143,0.99784525,0,0)" /><image
       width="48.471626"
       height="18.632471"
       preserveAspectRatio="none"
       xlink:href="Leaf1.png"
       id="image412"
       x="-12.43593"
       y="-157.54411"
       transform="matrix(0.81092746,-0.5851467,-0.57610875,-0.81737305,0,0)" /><image
       width="37.079372"
       height="16.133053"
       preserveAspectRatio="none"
       xlink:href="Leaf3.png"
       id="image416"
       x="102.57613"
       y="-156.00012"
       transform="matrix(0.99752933,0.07025118,0.05309237,-0.99858961,0,0)" /><image
       width="51.146053"
       height="19.973997"
       preserveAspectRatio="none"
       xlink:href="Leaf2.png"
       id="image420"
       x="118.56621"
       y="80.783447"
       transform="matrix(0.97580103,0.21866035,-0.25462868,0.9670389,0,0)" /><image
       width="42.443676"
       height="18.705795"
       preserveAspectRatio="none"
       xlink:href="Leaf1.png"
       id="image422"
       x="87.709015"
       y="-150.96771"
       transform="scale(1,-1)" /><image
       width="32.68399"
       height="11.517099"
       preserveAspectRatio="none"
       xlink:href="Leaf3.png"
       id="image424"
       x="65.728889"
       y="152.33289"
       transform="matrix(0.99838256,-0.05685305,0.06561143,0.99784525,0,0)" /><image
       width="56.167557"
       height="24.06975"
       preserveAspectRatio="none"
       xlink:href="Leaf1.png"
       id="image426"
       x="117.62172"
       y="-1.0399927"
       transform="matrix(0.69981633,0.71432283,-0.4459676,0.8950491,0,0)" /><image
       width="42.668694"
       height="19.251287"
       preserveAspectRatio="none"
       xlink:href="Leaf4.png"
       id="image428"
       x="84.999115"
       y="87.894226" /><image
       width="37.170856"
       height="22.805408"
       preserveAspectRatio="none"
       xlink:href="Leaf3.png"
       id="image430"
       x="65.937988"
       y="76.571953"
       transform="matrix(0.99507435,-0.09913139,0.03755873,0.99929442,0,0)" /><image
       width="47.694626"
       height="20.406288"
       preserveAspectRatio="none"
       xlink:href="Leaf4.png"
       id="image432"
       x="88.111542"
       y="-50.4618"
       transform="matrix(0.84073823,0.54144181,0.23610092,-0.97172854,0,0)" /><image
       width="52.355721"
       height="27.792831"
       preserveAspectRatio="none"
       xlink:href="Leaf2.png"
       id="image434"
       x="-17.007441"
       y="-214.48387"
       transform="matrix(0.9532553,-0.30216607,-0.1829951,-0.98311383,0,0)" /><image
       width="32.736828"
       height="16.274313"
       preserveAspectRatio="none"
       xlink:href="Leaf3.png"
       id="image438"
       x="93.809387"
       y="-99.30677"
       transform="matrix(0.99677127,0.08029343,0.04643228,-0.99892144,0,0)" /><image
       width="47.694626"
       height="20.406288"
       preserveAspectRatio="none"
       xlink:href="Leaf4.png"
       id="image440"
       x="88.111542"
       y="-50.4618"
       transform="matrix(0.84073823,0.54144181,0.23610092,-0.97172854,0,0)" /><image
       width="42.443676"
       height="26.460855"
       preserveAspectRatio="none"
       xlink:href="Leaf1.png"
       id="image442"
       x="14.202131"
       y="134.80573" /><image
       width="42.668694"
       height="19.251287"
       preserveAspectRatio="none"
       xlink:href="Leaf4.png"
       id="image444"
       x="103.17669"
       y="112.81252" /><image
       width="32.736828"
       height="16.274313"
       preserveAspectRatio="none"
       xlink:href="Leaf3.png"
       id="image452"
       x="106.09024"
       y="-136.96834"
       transform="matrix(0.99677127,0.08029343,0.04643228,-0.99892144,0,0)" /><image
       width="42.443676"
       height="17.905804"
       preserveAspectRatio="none"
       xlink:href="Leaf1.png"
       id="image454"
       x="8.2310886"
       y="-135.25584"
       transform="scale(1,-1)" /><image
       width="42.668694"
       height="13.609183"
       preserveAspectRatio="none"
       xlink:href="Leaf4.png"
       id="image414"
       x="91.401955"
       y="-159.19638"
       transform="scale(1,-1)" /><image
       width="32.736828"
       height="16.274313"
       preserveAspectRatio="none"
       xlink:href="Leaf3.png"
       id="image548"
       x="63.171146"
       y="-169.62425"
       transform="matrix(0.99677127,0.08029343,0.04643228,-0.99892144,0,0)" /><image
       width="32.671043"
       height="10.013938"
       preserveAspectRatio="none"
       xlink:href="Leaf3.png"
       id="image550"
       x="48.860191"
       y="-133.94067"
       transform="matrix(0.99877819,0.04941791,0.07546016,-0.99714882,0,0)" /><image
       width="47.694626"
       height="20.406288"
       preserveAspectRatio="none"
       xlink:href="Leaf4.png"
       id="image552"
       x="88.111542"
       y="-50.4618"
       transform="matrix(0.84073823,0.54144181,0.23610092,-0.97172854,0,0)" /><image
       width="51.146053"
       height="19.973997"
       preserveAspectRatio="none"
       xlink:href="Leaf2.png"
       id="image592"
       x="52.692856"
       y="116.0183"
       transform="matrix(0.97580103,0.21866035,-0.25462868,0.9670389,0,0)" /><image
       width="56.167557"
       height="24.06975"
       preserveAspectRatio="none"
       xlink:href="Leaf1.png"
       id="image596"
       x="169.03432"
       y="52.862946"
       transform="matrix(0.69981633,0.71432283,-0.4459676,0.8950491,0,0)" /></g></svg>
